solid ExploringRobotRubber1
   facet normal -0.000000e+00 -9.992572e-01 -3.853645e-02
      outer loop
         vertex 4.883340e+00 2.296527e+01 7.288607e+01
         vertex 0.000000e+00 2.296527e+01 7.288607e+01
         vertex 0.000000e+00 2.300086e+01 7.196323e+01
      endloop
   endfacet
   facet normal 0.000000e+00 -9.992572e-01 -3.853645e-02
      outer loop
         vertex 4.883340e+00 2.296527e+01 7.288607e+01
         vertex 0.000000e+00 2.300086e+01 7.196323e+01
         vertex 4.883340e+00 2.300086e+01 7.196323e+01
      endloop
   endfacet
   facet normal -0.000000e+00 -9.787575e-01 -2.050211e-01
      outer loop
         vertex 4.883340e+00 2.300086e+01 7.196323e+01
         vertex 0.000000e+00 2.300086e+01 7.196323e+01
         vertex 0.000000e+00 2.319021e+01 7.105932e+01
      endloop
   endfacet
   facet normal 0.000000e+00 -9.787575e-01 -2.050211e-01
      outer loop
         vertex 4.883340e+00 2.300086e+01 7.196323e+01
         vertex 0.000000e+00 2.319021e+01 7.105932e+01
         vertex 4.883340e+00 2.319021e+01 7.105932e+01
      endloop
   endfacet
   facet normal -0.000000e+00 -9.307195e-01 -3.657337e-01
      outer loop
         vertex 4.883340e+00 2.319021e+01 7.105932e+01
         vertex 0.000000e+00 2.319021e+01 7.105932e+01
         vertex 0.000000e+00 2.352797e+01 7.019978e+01
      endloop
   endfacet
   facet normal 0.000000e+00 -9.307195e-01 -3.657337e-01
      outer loop
         vertex 4.883340e+00 2.319021e+01 7.105932e+01
         vertex 0.000000e+00 2.352797e+01 7.019978e+01
         vertex 4.883340e+00 2.352797e+01 7.019978e+01
      endloop
   endfacet
   facet normal -0.000000e+00 -8.564951e-01 -5.161552e-01
      outer loop
         vertex 4.883340e+00 2.352797e+01 7.019978e+01
         vertex 0.000000e+00 2.352797e+01 7.019978e+01
         vertex 0.000000e+00 2.400465e+01 6.940878e+01
      endloop
   endfacet
   facet normal 0.000000e+00 -8.564951e-01 -5.161552e-01
      outer loop
         vertex 4.883340e+00 2.352797e+01 7.019978e+01
         vertex 0.000000e+00 2.400465e+01 6.940878e+01
         vertex 4.883340e+00 2.400465e+01 6.940878e+01
      endloop
   endfacet
   facet normal -0.000000e+00 -7.581661e-01 -6.520614e-01
      outer loop
         vertex 4.883340e+00 2.400465e+01 6.940878e+01
         vertex 0.000000e+00 2.400465e+01 6.940878e+01
         vertex 0.000000e+00 2.460685e+01 6.870860e+01
      endloop
   endfacet
   facet normal 0.000000e+00 -7.581661e-01 -6.520614e-01
      outer loop
         vertex 4.883340e+00 2.400465e+01 6.940878e+01
         vertex 0.000000e+00 2.460685e+01 6.870860e+01
         vertex 4.883340e+00 2.460685e+01 6.870860e+01
      endloop
   endfacet
   facet normal -0.000000e+00 -6.385123e-01 -7.696116e-01
      outer loop
         vertex 4.883340e+00 2.460685e+01 6.870860e+01
         vertex 0.000000e+00 2.460685e+01 6.870860e+01
         vertex 0.000000e+00 2.531761e+01 6.811891e+01
      endloop
   endfacet
   facet normal 0.000000e+00 -6.385123e-01 -7.696116e-01
      outer loop
         vertex 4.883340e+00 2.460685e+01 6.870860e+01
         vertex 0.000000e+00 2.531761e+01 6.811891e+01
         vertex 4.883340e+00 2.531761e+01 6.811891e+01
      endloop
   endfacet
   facet normal -0.000000e+00 -5.008882e-01 -8.655120e-01
      outer loop
         vertex 4.883340e+00 2.531761e+01 6.811891e+01
         vertex 0.000000e+00 2.531761e+01 6.811891e+01
         vertex 0.000000e+00 2.611693e+01 6.765633e+01
      endloop
   endfacet
   facet normal 0.000000e+00 -5.008882e-01 -8.655120e-01
      outer loop
         vertex 4.883340e+00 2.531761e+01 6.811891e+01
         vertex 0.000000e+00 2.611693e+01 6.765633e+01
         vertex 4.883340e+00 2.611693e+01 6.765633e+01
      endloop
   endfacet
   facet normal -0.000000e+00 -3.491712e-01 -9.370589e-01
      outer loop
         vertex 4.883340e+00 2.611693e+01 6.765633e+01
         vertex 0.000000e+00 2.611693e+01 6.765633e+01
         vertex 0.000000e+00 2.698233e+01 6.733386e+01
      endloop
   endfacet
   facet normal 0.000000e+00 -3.491712e-01 -9.370589e-01
      outer loop
         vertex 4.883340e+00 2.611693e+01 6.765633e+01
         vertex 0.000000e+00 2.698233e+01 6.733386e+01
         vertex 4.883340e+00 2.698233e+01 6.733386e+01
      endloop
   endfacet
   facet normal -0.000000e+00 -1.876270e-01 -9.822403e-01
      outer loop
         vertex 4.883340e+00 2.698233e+01 6.733386e+01
         vertex 0.000000e+00 2.698233e+01 6.733386e+01
         vertex 0.000000e+00 2.788945e+01 6.716058e+01
      endloop
   endfacet
   facet normal 0.000000e+00 -1.876270e-01 -9.822403e-01
      outer loop
         vertex 4.883340e+00 2.698233e+01 6.733386e+01
         vertex 0.000000e+00 2.788945e+01 6.716058e+01
         vertex 4.883340e+00 2.788945e+01 6.716058e+01
      endloop
   endfacet
   facet normal 0.000000e+00 -6.873303e-02 9.976351e-01
      outer loop
         vertex 4.883340e+00 2.855825e+01 7.814096e+01
         vertex 0.000000e+00 2.855825e+01 7.814096e+01
         vertex 0.000000e+00 2.761817e+01 7.807619e+01
      endloop
   endfacet
   facet normal 0.000000e+00 -6.873303e-02 9.976351e-01
      outer loop
         vertex 4.883340e+00 2.855825e+01 7.814096e+01
         vertex 0.000000e+00 2.761817e+01 7.807619e+01
         vertex 4.883340e+00 2.761817e+01 7.807619e+01
      endloop
   endfacet
   facet normal 0.000000e+00 -2.378572e-01 9.713001e-01
      outer loop
         vertex 4.883340e+00 2.761817e+01 7.807619e+01
         vertex 0.000000e+00 2.761817e+01 7.807619e+01
         vertex 0.000000e+00 2.670290e+01 7.785206e+01
      endloop
   endfacet
   facet normal 0.000000e+00 -2.378572e-01 9.713001e-01
      outer loop
         vertex 4.883340e+00 2.761817e+01 7.807619e+01
         vertex 0.000000e+00 2.670290e+01 7.785206e+01
         vertex 4.883340e+00 2.670290e+01 7.785206e+01
      endloop
   endfacet
   facet normal 0.000000e+00 -4.000000e-01 9.165151e-01
      outer loop
         vertex 4.883340e+00 2.670290e+01 7.785206e+01
         vertex 0.000000e+00 2.670290e+01 7.785206e+01
         vertex 0.000000e+00 2.583926e+01 7.747513e+01
      endloop
   endfacet
   facet normal 0.000000e+00 -4.000000e-01 9.165151e-01
      outer loop
         vertex 4.883340e+00 2.670290e+01 7.785206e+01
         vertex 0.000000e+00 2.583926e+01 7.747513e+01
         vertex 4.883340e+00 2.583926e+01 7.747513e+01
      endloop
   endfacet
   facet normal 0.000000e+00 -5.504315e-01 8.348803e-01
      outer loop
         vertex 4.883340e+00 2.583926e+01 7.747513e+01
         vertex 0.000000e+00 2.583926e+01 7.747513e+01
         vertex 0.000000e+00 2.505254e+01 7.695645e+01
      endloop
   endfacet
   facet normal 0.000000e+00 -5.504315e-01 8.348803e-01
      outer loop
         vertex 4.883340e+00 2.583926e+01 7.747513e+01
         vertex 0.000000e+00 2.505254e+01 7.695645e+01
         vertex 4.883340e+00 2.505254e+01 7.695645e+01
      endloop
   endfacet
   facet normal 0.000000e+00 -6.847365e-01 7.287907e-01
      outer loop
         vertex 4.883340e+00 2.505254e+01 7.695645e+01
         vertex 0.000000e+00 2.505254e+01 7.695645e+01
         vertex 0.000000e+00 2.436579e+01 7.631122e+01
      endloop
   endfacet
   facet normal 0.000000e+00 -6.847365e-01 7.287907e-01
      outer loop
         vertex 4.883340e+00 2.505254e+01 7.695645e+01
         vertex 0.000000e+00 2.436579e+01 7.631122e+01
         vertex 4.883340e+00 2.436579e+01 7.631122e+01
      endloop
   endfacet
   facet normal 0.000000e+00 -7.989827e-01 6.013540e-01
      outer loop
         vertex 4.883340e+00 2.436579e+01 7.631122e+01
         vertex 0.000000e+00 2.436579e+01 7.631122e+01
         vertex 0.000000e+00 2.379913e+01 7.555833e+01
      endloop
   endfacet
   facet normal 0.000000e+00 -7.989827e-01 6.013540e-01
      outer loop
         vertex 4.883340e+00 2.436579e+01 7.631122e+01
         vertex 0.000000e+00 2.379913e+01 7.555833e+01
         vertex 4.883340e+00 2.379913e+01 7.555833e+01
      endloop
   endfacet
   facet normal 0.000000e+00 -8.898282e-01 4.562958e-01
      outer loop
         vertex 4.883340e+00 2.379913e+01 7.555833e+01
         vertex 0.000000e+00 2.379913e+01 7.555833e+01
         vertex 0.000000e+00 2.336916e+01 7.471983e+01
      endloop
   endfacet
   facet normal 0.000000e+00 -8.898282e-01 4.562958e-01
      outer loop
         vertex 4.883340e+00 2.379913e+01 7.555833e+01
         vertex 0.000000e+00 2.336916e+01 7.471983e+01
         vertex 4.883340e+00 2.336916e+01 7.471983e+01
      endloop
   endfacet
   facet normal 0.000000e+00 -9.546045e-01 2.978761e-01
      outer loop
         vertex 4.883340e+00 2.336916e+01 7.471983e+01
         vertex 0.000000e+00 2.336916e+01 7.471983e+01
         vertex 0.000000e+00 2.308846e+01 7.382029e+01
      endloop
   endfacet
   facet normal 0.000000e+00 -9.546045e-01 2.978761e-01
      outer loop
         vertex 4.883340e+00 2.336916e+01 7.471983e+01
         vertex 0.000000e+00 2.308846e+01 7.382029e+01
         vertex 4.883340e+00 2.308846e+01 7.382029e+01
      endloop
   endfacet
   facet normal 0.000000e+00 -9.914180e-01 1.307300e-01
      outer loop
         vertex 4.883340e+00 2.308846e+01 7.382029e+01
         vertex 0.000000e+00 2.308846e+01 7.382029e+01
         vertex 0.000000e+00 2.296527e+01 7.288607e+01
      endloop
   endfacet
   facet normal 0.000000e+00 -9.914180e-01 1.307300e-01
      outer loop
         vertex 4.883340e+00 2.308846e+01 7.382029e+01
         vertex 0.000000e+00 2.296527e+01 7.288607e+01
         vertex 4.883340e+00 2.296527e+01 7.288607e+01
      endloop
   endfacet
   facet normal -1.000000e+00 0.000000e+00 0.000000e+00
      outer loop
         vertex 0.000000e+00 2.396527e+01 7.288607e+01
         vertex 0.000000e+00 2.296527e+01 7.288607e+01
         vertex 0.000000e+00 2.407382e+01 7.364977e+01
      endloop
   endfacet
   facet normal -1.000000e+00 -0.000000e+00 0.000000e+00
      outer loop
         vertex 0.000000e+00 2.407382e+01 7.364977e+01
         vertex 0.000000e+00 2.296527e+01 7.288607e+01
         vertex 0.000000e+00 2.308846e+01 7.382029e+01
      endloop
   endfacet
   facet normal -1.000000e+00 0.000000e+00 0.000000e+00
      outer loop
         vertex 0.000000e+00 2.407382e+01 7.364977e+01
         vertex 0.000000e+00 2.308846e+01 7.382029e+01
         vertex 0.000000e+00 2.431100e+01 7.438377e+01
      endloop
   endfacet
   facet normal -1.000000e+00 -0.000000e+00 0.000000e+00
      outer loop
         vertex 0.000000e+00 2.431100e+01 7.438377e+01
         vertex 0.000000e+00 2.308846e+01 7.382029e+01
         vertex 0.000000e+00 2.336916e+01 7.471983e+01
      endloop
   endfacet
   facet normal -1.000000e+00 0.000000e+00 0.000000e+00
      outer loop
         vertex 0.000000e+00 2.431100e+01 7.438377e+01
         vertex 0.000000e+00 2.336916e+01 7.471983e+01
         vertex 0.000000e+00 2.466987e+01 7.506658e+01
      endloop
   endfacet
   facet normal -1.000000e+00 -0.000000e+00 0.000000e+00
      outer loop
         vertex 0.000000e+00 2.466987e+01 7.506658e+01
         vertex 0.000000e+00 2.336916e+01 7.471983e+01
         vertex 0.000000e+00 2.379913e+01 7.555833e+01
      endloop
   endfacet
   facet normal -1.000000e+00 0.000000e+00 0.000000e+00
      outer loop
         vertex 0.000000e+00 2.466987e+01 7.506658e+01
         vertex 0.000000e+00 2.379913e+01 7.555833e+01
         vertex 0.000000e+00 2.513993e+01 7.567820e+01
      endloop
   endfacet
   facet normal -1.000000e+00 -0.000000e+00 0.000000e+00
      outer loop
         vertex 0.000000e+00 2.513993e+01 7.567820e+01
         vertex 0.000000e+00 2.379913e+01 7.555833e+01
         vertex 0.000000e+00 2.436579e+01 7.631122e+01
      endloop
   endfacet
   facet normal -1.000000e+00 0.000000e+00 0.000000e+00
      outer loop
         vertex 0.000000e+00 2.513993e+01 7.567820e+01
         vertex 0.000000e+00 2.436579e+01 7.631122e+01
         vertex 0.000000e+00 2.570739e+01 7.620069e+01
      endloop
   endfacet
   facet normal -1.000000e+00 0.000000e+00 0.000000e+00
      outer loop
         vertex 0.000000e+00 2.570739e+01 7.620069e+01
         vertex 0.000000e+00 2.436579e+01 7.631122e+01
         vertex 0.000000e+00 2.505254e+01 7.695645e+01
      endloop
   endfacet
   facet normal -1.000000e+00 0.000000e+00 0.000000e+00
      outer loop
         vertex 0.000000e+00 2.570739e+01 7.620069e+01
         vertex 0.000000e+00 2.505254e+01 7.695645e+01
         vertex 0.000000e+00 2.635564e+01 7.661878e+01
      endloop
   endfacet
   facet normal -1.000000e+00 0.000000e+00 0.000000e+00
      outer loop
         vertex 0.000000e+00 2.635564e+01 7.661878e+01
         vertex 0.000000e+00 2.505254e+01 7.695645e+01
         vertex 0.000000e+00 2.583926e+01 7.747513e+01
      endloop
   endfacet
   facet normal -1.000000e+00 0.000000e+00 0.000000e+00
      outer loop
         vertex 0.000000e+00 2.635564e+01 7.661878e+01
         vertex 0.000000e+00 2.583926e+01 7.747513e+01
         vertex 0.000000e+00 2.706569e+01 7.692019e+01
      endloop
   endfacet
   facet normal -1.000000e+00 0.000000e+00 0.000000e+00
      outer loop
         vertex 0.000000e+00 2.706569e+01 7.692019e+01
         vertex 0.000000e+00 2.583926e+01 7.747513e+01
         vertex 0.000000e+00 2.670290e+01 7.785206e+01
      endloop
   endfacet
   facet normal -1.000000e+00 0.000000e+00 0.000000e+00
      outer loop
         vertex 0.000000e+00 2.706569e+01 7.692019e+01
         vertex 0.000000e+00 2.670290e+01 7.785206e+01
         vertex 0.000000e+00 2.781674e+01 7.709610e+01
      endloop
   endfacet
   facet normal -1.000000e+00 0.000000e+00 0.000000e+00
      outer loop
         vertex 0.000000e+00 2.781674e+01 7.709610e+01
         vertex 0.000000e+00 2.670290e+01 7.785206e+01
         vertex 0.000000e+00 2.761817e+01 7.807619e+01
      endloop
   endfacet
   facet normal -1.000000e+00 0.000000e+00 0.000000e+00
      outer loop
         vertex 0.000000e+00 2.781674e+01 7.709610e+01
         vertex 0.000000e+00 2.761817e+01 7.807619e+01
         vertex 0.000000e+00 2.858678e+01 7.714137e+01
      endloop
   endfacet
   facet normal -1.000000e+00 0.000000e+00 0.000000e+00
      outer loop
         vertex 0.000000e+00 2.858678e+01 7.714137e+01
         vertex 0.000000e+00 2.761817e+01 7.807619e+01
         vertex 0.000000e+00 2.855825e+01 7.814096e+01
      endloop
   endfacet
   facet normal 0.000000e+00 9.900505e-01 -1.407124e-01
      outer loop
         vertex 4.883340e+00 2.396527e+01 7.288607e+01
         vertex 0.000000e+00 2.396527e+01 7.288607e+01
         vertex 4.883340e+00 2.407382e+01 7.364977e+01
      endloop
   endfacet
   facet normal 0.000000e+00 9.900505e-01 -1.407124e-01
      outer loop
         vertex 4.883340e+00 2.407382e+01 7.364977e+01
         vertex 0.000000e+00 2.396527e+01 7.288607e+01
         vertex 0.000000e+00 2.407382e+01 7.364977e+01
      endloop
   endfacet
   facet normal 0.000000e+00 9.515543e-01 -3.074808e-01
      outer loop
         vertex 4.883340e+00 2.407382e+01 7.364977e+01
         vertex 0.000000e+00 2.407382e+01 7.364977e+01
         vertex 4.883340e+00 2.431100e+01 7.438377e+01
      endloop
   endfacet
   facet normal 0.000000e+00 9.515543e-01 -3.074808e-01
      outer loop
         vertex 4.883340e+00 2.431100e+01 7.438377e+01
         vertex 0.000000e+00 2.407382e+01 7.364977e+01
         vertex 0.000000e+00 2.431100e+01 7.438377e+01
      endloop
   endfacet
   facet normal 0.000000e+00 8.851846e-01 -4.652399e-01
      outer loop
         vertex 4.883340e+00 2.431100e+01 7.438377e+01
         vertex 0.000000e+00 2.431100e+01 7.438377e+01
         vertex 4.883340e+00 2.466987e+01 7.506658e+01
      endloop
   endfacet
   facet normal 0.000000e+00 8.851846e-01 -4.652399e-01
      outer loop
         vertex 4.883340e+00 2.466987e+01 7.506658e+01
         vertex 0.000000e+00 2.431100e+01 7.438377e+01
         vertex 0.000000e+00 2.466987e+01 7.506658e+01
      endloop
   endfacet
   facet normal 0.000000e+00 7.928884e-01 -6.093669e-01
      outer loop
         vertex 4.883340e+00 2.466987e+01 7.506658e+01
         vertex 0.000000e+00 2.466987e+01 7.506658e+01
         vertex 4.883340e+00 2.513993e+01 7.567820e+01
      endloop
   endfacet
   facet normal 0.000000e+00 7.928884e-01 -6.093669e-01
      outer loop
         vertex 4.883340e+00 2.513993e+01 7.567820e+01
         vertex 0.000000e+00 2.466987e+01 7.506658e+01
         vertex 0.000000e+00 2.513993e+01 7.567820e+01
      endloop
   endfacet
   facet normal 0.000000e+00 6.773577e-01 -7.356538e-01
      outer loop
         vertex 4.883340e+00 2.513993e+01 7.567820e+01
         vertex 0.000000e+00 2.513993e+01 7.567820e+01
         vertex 4.883340e+00 2.570739e+01 7.620069e+01
      endloop
   endfacet
   facet normal 0.000000e+00 6.773577e-01 -7.356538e-01
      outer loop
         vertex 4.883340e+00 2.570739e+01 7.620069e+01
         vertex 0.000000e+00 2.513993e+01 7.567820e+01
         vertex 0.000000e+00 2.570739e+01 7.620069e+01
      endloop
   endfacet
   facet normal 0.000000e+00 5.419935e-01 -8.403827e-01
      outer loop
         vertex 4.883340e+00 2.570739e+01 7.620069e+01
         vertex 0.000000e+00 2.570739e+01 7.620069e+01
         vertex 4.883340e+00 2.635564e+01 7.661878e+01
      endloop
   endfacet
   facet normal 0.000000e+00 5.419935e-01 -8.403827e-01
      outer loop
         vertex 4.883340e+00 2.635564e+01 7.661878e+01
         vertex 0.000000e+00 2.570739e+01 7.620069e+01
         vertex 0.000000e+00 2.635564e+01 7.661878e+01
      endloop
   endfacet
   facet normal 0.000000e+00 3.907477e-01 -9.204978e-01
      outer loop
         vertex 4.883340e+00 2.635564e+01 7.661878e+01
         vertex 0.000000e+00 2.635564e+01 7.661878e+01
         vertex 4.883340e+00 2.706569e+01 7.692019e+01
      endloop
   endfacet
   facet normal 0.000000e+00 3.907477e-01 -9.204978e-01
      outer loop
         vertex 4.883340e+00 2.706569e+01 7.692019e+01
         vertex 0.000000e+00 2.635564e+01 7.661878e+01
         vertex 0.000000e+00 2.706569e+01 7.692019e+01
      endloop
   endfacet
   facet normal 0.000000e+00 2.280546e-01 -9.736484e-01
      outer loop
         vertex 4.883340e+00 2.706569e+01 7.692019e+01
         vertex 0.000000e+00 2.706569e+01 7.692019e+01
         vertex 4.883340e+00 2.781674e+01 7.709610e+01
      endloop
   endfacet
   facet normal 0.000000e+00 2.280546e-01 -9.736484e-01
      outer loop
         vertex 4.883340e+00 2.781674e+01 7.709610e+01
         vertex 0.000000e+00 2.706569e+01 7.692019e+01
         vertex 0.000000e+00 2.781674e+01 7.709610e+01
      endloop
   endfacet
   facet normal 0.000000e+00 5.867743e-02 -9.982770e-01
      outer loop
         vertex 4.883340e+00 2.781674e+01 7.709610e+01
         vertex 0.000000e+00 2.781674e+01 7.709610e+01
         vertex 4.883340e+00 2.858678e+01 7.714137e+01
      endloop
   endfacet
   facet normal 0.000000e+00 5.867743e-02 -9.982770e-01
      outer loop
         vertex 4.883340e+00 2.858678e+01 7.714137e+01
         vertex 0.000000e+00 2.781674e+01 7.709610e+01
         vertex 0.000000e+00 2.858678e+01 7.714137e+01
      endloop
   endfacet
   facet normal 1.000000e+00 0.000000e+00 0.000000e+00
      outer loop
         vertex 4.883340e+00 2.858678e+01 7.714137e+01
         vertex 4.883340e+00 2.855825e+01 7.814096e+01
         vertex 4.883340e+00 2.781674e+01 7.709610e+01
      endloop
   endfacet
   facet normal 1.000000e+00 0.000000e+00 -0.000000e+00
      outer loop
         vertex 4.883340e+00 2.781674e+01 7.709610e+01
         vertex 4.883340e+00 2.855825e+01 7.814096e+01
         vertex 4.883340e+00 2.761817e+01 7.807619e+01
      endloop
   endfacet
   facet normal 1.000000e+00 0.000000e+00 0.000000e+00
      outer loop
         vertex 4.883340e+00 2.781674e+01 7.709610e+01
         vertex 4.883340e+00 2.761817e+01 7.807619e+01
         vertex 4.883340e+00 2.706569e+01 7.692019e+01
      endloop
   endfacet
   facet normal 1.000000e+00 0.000000e+00 -0.000000e+00
      outer loop
         vertex 4.883340e+00 2.706569e+01 7.692019e+01
         vertex 4.883340e+00 2.761817e+01 7.807619e+01
         vertex 4.883340e+00 2.670290e+01 7.785206e+01
      endloop
   endfacet
   facet normal 1.000000e+00 0.000000e+00 0.000000e+00
      outer loop
         vertex 4.883340e+00 2.706569e+01 7.692019e+01
         vertex 4.883340e+00 2.670290e+01 7.785206e+01
         vertex 4.883340e+00 2.635564e+01 7.661878e+01
      endloop
   endfacet
   facet normal 1.000000e+00 0.000000e+00 -0.000000e+00
      outer loop
         vertex 4.883340e+00 2.635564e+01 7.661878e+01
         vertex 4.883340e+00 2.670290e+01 7.785206e+01
         vertex 4.883340e+00 2.583926e+01 7.747513e+01
      endloop
   endfacet
   facet normal 1.000000e+00 0.000000e+00 0.000000e+00
      outer loop
         vertex 4.883340e+00 2.635564e+01 7.661878e+01
         vertex 4.883340e+00 2.583926e+01 7.747513e+01
         vertex 4.883340e+00 2.570739e+01 7.620069e+01
      endloop
   endfacet
   facet normal 1.000000e+00 0.000000e+00 -0.000000e+00
      outer loop
         vertex 4.883340e+00 2.570739e+01 7.620069e+01
         vertex 4.883340e+00 2.583926e+01 7.747513e+01
         vertex 4.883340e+00 2.505254e+01 7.695645e+01
      endloop
   endfacet
   facet normal 1.000000e+00 0.000000e+00 0.000000e+00
      outer loop
         vertex 4.883340e+00 2.570739e+01 7.620069e+01
         vertex 4.883340e+00 2.505254e+01 7.695645e+01
         vertex 4.883340e+00 2.513993e+01 7.567820e+01
      endloop
   endfacet
   facet normal 1.000000e+00 0.000000e+00 0.000000e+00
      outer loop
         vertex 4.883340e+00 2.513993e+01 7.567820e+01
         vertex 4.883340e+00 2.505254e+01 7.695645e+01
         vertex 4.883340e+00 2.436579e+01 7.631122e+01
      endloop
   endfacet
   facet normal 1.000000e+00 0.000000e+00 0.000000e+00
      outer loop
         vertex 4.883340e+00 2.513993e+01 7.567820e+01
         vertex 4.883340e+00 2.436579e+01 7.631122e+01
         vertex 4.883340e+00 2.466987e+01 7.506658e+01
      endloop
   endfacet
   facet normal 1.000000e+00 0.000000e+00 0.000000e+00
      outer loop
         vertex 4.883340e+00 2.466987e+01 7.506658e+01
         vertex 4.883340e+00 2.436579e+01 7.631122e+01
         vertex 4.883340e+00 2.379913e+01 7.555833e+01
      endloop
   endfacet
   facet normal 1.000000e+00 0.000000e+00 0.000000e+00
      outer loop
         vertex 4.883340e+00 2.466987e+01 7.506658e+01
         vertex 4.883340e+00 2.379913e+01 7.555833e+01
         vertex 4.883340e+00 2.431100e+01 7.438377e+01
      endloop
   endfacet
   facet normal 1.000000e+00 0.000000e+00 0.000000e+00
      outer loop
         vertex 4.883340e+00 2.431100e+01 7.438377e+01
         vertex 4.883340e+00 2.379913e+01 7.555833e+01
         vertex 4.883340e+00 2.336916e+01 7.471983e+01
      endloop
   endfacet
   facet normal 1.000000e+00 0.000000e+00 0.000000e+00
      outer loop
         vertex 4.883340e+00 2.431100e+01 7.438377e+01
         vertex 4.883340e+00 2.336916e+01 7.471983e+01
         vertex 4.883340e+00 2.407382e+01 7.364977e+01
      endloop
   endfacet
   facet normal 1.000000e+00 0.000000e+00 0.000000e+00
      outer loop
         vertex 4.883340e+00 2.407382e+01 7.364977e+01
         vertex 4.883340e+00 2.336916e+01 7.471983e+01
         vertex 4.883340e+00 2.308846e+01 7.382029e+01
      endloop
   endfacet
   facet normal 1.000000e+00 0.000000e+00 0.000000e+00
      outer loop
         vertex 4.883340e+00 2.407382e+01 7.364977e+01
         vertex 4.883340e+00 2.308846e+01 7.382029e+01
         vertex 4.883340e+00 2.396527e+01 7.288607e+01
      endloop
   endfacet
   facet normal 1.000000e+00 0.000000e+00 0.000000e+00
      outer loop
         vertex 4.883340e+00 2.396527e+01 7.288607e+01
         vertex 4.883340e+00 2.308846e+01 7.382029e+01
         vertex 4.883340e+00 2.296527e+01 7.288607e+01
      endloop
   endfacet
   facet normal 0.000000e+00 2.696025e-02 9.996365e-01
      outer loop
         vertex 4.883340e+00 2.855825e+01 7.814096e+01
         vertex 4.883340e+00 9.868225e+01 7.624971e+01
         vertex 0.000000e+00 2.855825e+01 7.814096e+01
      endloop
   endfacet
   facet normal 0.000000e+00 2.696025e-02 9.996365e-01
      outer loop
         vertex 0.000000e+00 2.855825e+01 7.814096e+01
         vertex 4.883340e+00 9.868225e+01 7.624971e+01
         vertex 0.000000e+00 9.868225e+01 7.624971e+01
      endloop
   endfacet
   facet normal -1.000000e+00 0.000000e+00 0.000000e+00
      outer loop
         vertex 0.000000e+00 2.855825e+01 7.814096e+01
         vertex 0.000000e+00 9.868225e+01 7.624971e+01
         vertex 0.000000e+00 2.858678e+01 7.714137e+01
      endloop
   endfacet
   facet normal -1.000000e+00 0.000000e+00 0.000000e+00
      outer loop
         vertex 0.000000e+00 2.858678e+01 7.714137e+01
         vertex 0.000000e+00 9.868225e+01 7.624971e+01
         vertex 0.000000e+00 9.871078e+01 7.525012e+01
      endloop
   endfacet
   facet normal 0.000000e+00 -2.696025e-02 -9.996365e-01
      outer loop
         vertex 0.000000e+00 2.858678e+01 7.714137e+01
         vertex 0.000000e+00 9.871078e+01 7.525012e+01
         vertex 4.883340e+00 2.858678e+01 7.714137e+01
      endloop
   endfacet
   facet normal 0.000000e+00 -2.696025e-02 -9.996365e-01
      outer loop
         vertex 4.883340e+00 2.858678e+01 7.714137e+01
         vertex 0.000000e+00 9.871078e+01 7.525012e+01
         vertex 4.883340e+00 9.871078e+01 7.525012e+01
      endloop
   endfacet
   facet normal 1.000000e+00 0.000000e+00 0.000000e+00
      outer loop
         vertex 4.883340e+00 2.855825e+01 7.814096e+01
         vertex 4.883340e+00 2.858678e+01 7.714137e+01
         vertex 4.883340e+00 9.868225e+01 7.624971e+01
      endloop
   endfacet
   facet normal 1.000000e+00 0.000000e+00 0.000000e+00
      outer loop
         vertex 4.883340e+00 9.868225e+01 7.624971e+01
         vertex 4.883340e+00 2.858678e+01 7.714137e+01
         vertex 4.883340e+00 9.871078e+01 7.525012e+01
      endloop
   endfacet
   facet normal 0.000000e+00 9.948916e-01 1.009488e-01
      outer loop
         vertex 4.883340e+00 1.022537e+02 7.269154e+01
         vertex 0.000000e+00 1.022537e+02 7.269154e+01
         vertex 0.000000e+00 1.021912e+02 7.330753e+01
      endloop
   endfacet
   facet normal 0.000000e+00 9.948916e-01 1.009488e-01
      outer loop
         vertex 4.883340e+00 1.022537e+02 7.269154e+01
         vertex 0.000000e+00 1.021912e+02 7.330753e+01
         vertex 4.883340e+00 1.021912e+02 7.330753e+01
      endloop
   endfacet
   facet normal 0.000000e+00 9.630607e-01 2.692844e-01
      outer loop
         vertex 4.883340e+00 1.021912e+02 7.330753e+01
         vertex 0.000000e+00 1.021912e+02 7.330753e+01
         vertex 0.000000e+00 1.020245e+02 7.390381e+01
      endloop
   endfacet
   facet normal 0.000000e+00 9.630607e-01 2.692844e-01
      outer loop
         vertex 4.883340e+00 1.021912e+02 7.330753e+01
         vertex 0.000000e+00 1.020245e+02 7.390381e+01
         vertex 4.883340e+00 1.020245e+02 7.390381e+01
      endloop
   endfacet
   facet normal 0.000000e+00 9.029581e-01 4.297285e-01
      outer loop
         vertex 4.883340e+00 1.020245e+02 7.390381e+01
         vertex 0.000000e+00 1.020245e+02 7.390381e+01
         vertex 0.000000e+00 1.017584e+02 7.446288e+01
      endloop
   endfacet
   facet normal 0.000000e+00 9.029581e-01 4.297285e-01
      outer loop
         vertex 4.883340e+00 1.020245e+02 7.390381e+01
         vertex 0.000000e+00 1.017584e+02 7.446288e+01
         vertex 4.883340e+00 1.017584e+02 7.446288e+01
      endloop
   endfacet
   facet normal 0.000000e+00 8.163538e-01 5.775522e-01
      outer loop
         vertex 4.883340e+00 1.017584e+02 7.446288e+01
         vertex 0.000000e+00 1.017584e+02 7.446288e+01
         vertex 0.000000e+00 1.014008e+02 7.496834e+01
      endloop
   endfacet
   facet normal 0.000000e+00 8.163538e-01 5.775522e-01
      outer loop
         vertex 4.883340e+00 1.017584e+02 7.446288e+01
         vertex 0.000000e+00 1.014008e+02 7.496834e+01
         vertex 4.883340e+00 1.014008e+02 7.496834e+01
      endloop
   endfacet
   facet normal 0.000000e+00 7.057818e-01 7.084292e-01
      outer loop
         vertex 4.883340e+00 1.014008e+02 7.496834e+01
         vertex 0.000000e+00 1.014008e+02 7.496834e+01
         vertex 0.000000e+00 1.009622e+02 7.540532e+01
      endloop
   endfacet
   facet normal 0.000000e+00 7.057818e-01 7.084292e-01
      outer loop
         vertex 4.883340e+00 1.014008e+02 7.496834e+01
         vertex 0.000000e+00 1.009622e+02 7.540532e+01
         vertex 4.883340e+00 1.009622e+02 7.540532e+01
      endloop
   endfacet
   facet normal 0.000000e+00 5.745013e-01 8.185037e-01
      outer loop
         vertex 4.883340e+00 1.009622e+02 7.540532e+01
         vertex 0.000000e+00 1.009622e+02 7.540532e+01
         vertex 0.000000e+00 1.004554e+02 7.576103e+01
      endloop
   endfacet
   facet normal 0.000000e+00 5.745013e-01 8.185037e-01
      outer loop
         vertex 4.883340e+00 1.009622e+02 7.540532e+01
         vertex 0.000000e+00 1.004554e+02 7.576103e+01
         vertex 4.883340e+00 1.004554e+02 7.576103e+01
      endloop
   endfacet
   facet normal 0.000000e+00 4.263573e-01 9.045548e-01
      outer loop
         vertex 4.883340e+00 1.004554e+02 7.576103e+01
         vertex 0.000000e+00 1.004554e+02 7.576103e+01
         vertex 0.000000e+00 9.989537e+01 7.602501e+01
      endloop
   endfacet
   facet normal 0.000000e+00 4.263573e-01 9.045548e-01
      outer loop
         vertex 4.883340e+00 1.004554e+02 7.576103e+01
         vertex 0.000000e+00 9.989537e+01 7.602501e+01
         vertex 4.883340e+00 9.989537e+01 7.602501e+01
      endloop
   endfacet
   facet normal 0.000000e+00 2.656864e-01 9.640595e-01
      outer loop
         vertex 4.883340e+00 9.989537e+01 7.602501e+01
         vertex 0.000000e+00 9.989537e+01 7.602501e+01
         vertex 0.000000e+00 9.929847e+01 7.618951e+01
      endloop
   endfacet
   facet normal 0.000000e+00 2.656864e-01 9.640595e-01
      outer loop
         vertex 4.883340e+00 9.989537e+01 7.602501e+01
         vertex 0.000000e+00 9.929847e+01 7.618951e+01
         vertex 4.883340e+00 9.929847e+01 7.618951e+01
      endloop
   endfacet
   facet normal 0.000000e+00 9.723021e-02 9.952619e-01
      outer loop
         vertex 4.883340e+00 9.929847e+01 7.618951e+01
         vertex 0.000000e+00 9.929847e+01 7.618951e+01
         vertex 0.000000e+00 9.868225e+01 7.624971e+01
      endloop
   endfacet
   facet normal 0.000000e+00 9.723021e-02 9.952619e-01
      outer loop
         vertex 4.883340e+00 9.929847e+01 7.618951e+01
         vertex 0.000000e+00 9.868225e+01 7.624971e+01
         vertex 4.883340e+00 9.868225e+01 7.624971e+01
      endloop
   endfacet
   facet normal -1.000000e+00 0.000000e+00 0.000000e+00
      outer loop
         vertex 0.000000e+00 9.871078e+01 7.525012e+01
         vertex 0.000000e+00 9.868225e+01 7.624971e+01
         vertex 0.000000e+00 9.915596e+01 7.519972e+01
      endloop
   endfacet
   facet normal -1.000000e+00 0.000000e+00 0.000000e+00
      outer loop
         vertex 0.000000e+00 9.915596e+01 7.519972e+01
         vertex 0.000000e+00 9.868225e+01 7.624971e+01
         vertex 0.000000e+00 9.929847e+01 7.618951e+01
      endloop
   endfacet
   facet normal -1.000000e+00 0.000000e+00 0.000000e+00
      outer loop
         vertex 0.000000e+00 9.915596e+01 7.519972e+01
         vertex 0.000000e+00 9.929847e+01 7.618951e+01
         vertex 0.000000e+00 9.958600e+01 7.507407e+01
      endloop
   endfacet
   facet normal -1.000000e+00 0.000000e+00 0.000000e+00
      outer loop
         vertex 0.000000e+00 9.958600e+01 7.507407e+01
         vertex 0.000000e+00 9.929847e+01 7.618951e+01
         vertex 0.000000e+00 9.989537e+01 7.602501e+01
      endloop
   endfacet
   facet normal -1.000000e+00 0.000000e+00 0.000000e+00
      outer loop
         vertex 0.000000e+00 9.958600e+01 7.507407e+01
         vertex 0.000000e+00 9.989537e+01 7.602501e+01
         vertex 0.000000e+00 9.998827e+01 7.487686e+01
      endloop
   endfacet
   facet normal -1.000000e+00 0.000000e+00 0.000000e+00
      outer loop
         vertex 0.000000e+00 9.998827e+01 7.487686e+01
         vertex 0.000000e+00 9.989537e+01 7.602501e+01
         vertex 0.000000e+00 1.004554e+02 7.576103e+01
      endloop
   endfacet
   facet normal -1.000000e+00 0.000000e+00 0.000000e+00
      outer loop
         vertex 0.000000e+00 9.998827e+01 7.487686e+01
         vertex 0.000000e+00 1.004554e+02 7.576103e+01
         vertex 0.000000e+00 1.003510e+02 7.461387e+01
      endloop
   endfacet
   facet normal -1.000000e+00 0.000000e+00 0.000000e+00
      outer loop
         vertex 0.000000e+00 1.003510e+02 7.461387e+01
         vertex 0.000000e+00 1.004554e+02 7.576103e+01
         vertex 0.000000e+00 1.009622e+02 7.540532e+01
      endloop
   endfacet
   facet normal -1.000000e+00 0.000000e+00 0.000000e+00
      outer loop
         vertex 0.000000e+00 1.003510e+02 7.461387e+01
         vertex 0.000000e+00 1.009622e+02 7.540532e+01
         vertex 0.000000e+00 1.006635e+02 7.429283e+01
      endloop
   endfacet
   facet normal -1.000000e+00 0.000000e+00 0.000000e+00
      outer loop
         vertex 0.000000e+00 1.006635e+02 7.429283e+01
         vertex 0.000000e+00 1.009622e+02 7.540532e+01
         vertex 0.000000e+00 1.014008e+02 7.496834e+01
      endloop
   endfacet
   facet normal -1.000000e+00 0.000000e+00 0.000000e+00
      outer loop
         vertex 0.000000e+00 1.006635e+02 7.429283e+01
         vertex 0.000000e+00 1.014008e+02 7.496834e+01
         vertex 0.000000e+00 1.009166e+02 7.392316e+01
      endloop
   endfacet
   facet normal -1.000000e+00 0.000000e+00 0.000000e+00
      outer loop
         vertex 0.000000e+00 1.009166e+02 7.392316e+01
         vertex 0.000000e+00 1.014008e+02 7.496834e+01
         vertex 0.000000e+00 1.017584e+02 7.446288e+01
      endloop
   endfacet
   facet normal -1.000000e+00 0.000000e+00 0.000000e+00
      outer loop
         vertex 0.000000e+00 1.009166e+02 7.392316e+01
         vertex 0.000000e+00 1.017584e+02 7.446288e+01
         vertex 0.000000e+00 1.011029e+02 7.351571e+01
      endloop
   endfacet
   facet normal -1.000000e+00 0.000000e+00 0.000000e+00
      outer loop
         vertex 0.000000e+00 1.011029e+02 7.351571e+01
         vertex 0.000000e+00 1.017584e+02 7.446288e+01
         vertex 0.000000e+00 1.020245e+02 7.390381e+01
      endloop
   endfacet
   facet normal -1.000000e+00 0.000000e+00 0.000000e+00
      outer loop
         vertex 0.000000e+00 1.011029e+02 7.351571e+01
         vertex 0.000000e+00 1.020245e+02 7.390381e+01
         vertex 0.000000e+00 1.012169e+02 7.308244e+01
      endloop
   endfacet
   facet normal -1.000000e+00 0.000000e+00 0.000000e+00
      outer loop
         vertex 0.000000e+00 1.012169e+02 7.308244e+01
         vertex 0.000000e+00 1.020245e+02 7.390381e+01
         vertex 0.000000e+00 1.021912e+02 7.330753e+01
      endloop
   endfacet
   facet normal -1.000000e+00 0.000000e+00 0.000000e+00
      outer loop
         vertex 0.000000e+00 1.012169e+02 7.308244e+01
         vertex 0.000000e+00 1.021912e+02 7.330753e+01
         vertex 0.000000e+00 1.012553e+02 7.263607e+01
      endloop
   endfacet
   facet normal -1.000000e+00 0.000000e+00 0.000000e+00
      outer loop
         vertex 0.000000e+00 1.012553e+02 7.263607e+01
         vertex 0.000000e+00 1.021912e+02 7.330753e+01
         vertex 0.000000e+00 1.022537e+02 7.269154e+01
      endloop
   endfacet
   facet normal -0.000000e+00 -1.125011e-01 -9.936516e-01
      outer loop
         vertex 4.883340e+00 9.871078e+01 7.525012e+01
         vertex 0.000000e+00 9.871078e+01 7.525012e+01
         vertex 4.883340e+00 9.915596e+01 7.519972e+01
      endloop
   endfacet
   facet normal -0.000000e+00 -1.125011e-01 -9.936516e-01
      outer loop
         vertex 4.883340e+00 9.915596e+01 7.519972e+01
         vertex 0.000000e+00 9.871078e+01 7.525012e+01
         vertex 0.000000e+00 9.915596e+01 7.519972e+01
      endloop
   endfacet
   facet normal -0.000000e+00 -2.804489e-01 -9.598690e-01
      outer loop
         vertex 4.883340e+00 9.915596e+01 7.519972e+01
         vertex 0.000000e+00 9.915596e+01 7.519972e+01
         vertex 4.883340e+00 9.958600e+01 7.507407e+01
      endloop
   endfacet
   facet normal -0.000000e+00 -2.804489e-01 -9.598690e-01
      outer loop
         vertex 4.883340e+00 9.958600e+01 7.507407e+01
         vertex 0.000000e+00 9.915596e+01 7.519972e+01
         vertex 0.000000e+00 9.958600e+01 7.507407e+01
      endloop
   endfacet
   facet normal -0.000000e+00 -4.401819e-01 -8.979086e-01
      outer loop
         vertex 4.883340e+00 9.958600e+01 7.507407e+01
         vertex 0.000000e+00 9.958600e+01 7.507407e+01
         vertex 4.883340e+00 9.998827e+01 7.487686e+01
      endloop
   endfacet
   facet normal -0.000000e+00 -4.401819e-01 -8.979086e-01
      outer loop
         vertex 4.883340e+00 9.998827e+01 7.487686e+01
         vertex 0.000000e+00 9.958600e+01 7.507407e+01
         vertex 0.000000e+00 9.998827e+01 7.487686e+01
      endloop
   endfacet
   facet normal -0.000000e+00 -5.870063e-01 -8.095824e-01
      outer loop
         vertex 4.883340e+00 9.998827e+01 7.487686e+01
         vertex 0.000000e+00 9.998827e+01 7.487686e+01
         vertex 4.883340e+00 1.003510e+02 7.461387e+01
      endloop
   endfacet
   facet normal -0.000000e+00 -5.870063e-01 -8.095824e-01
      outer loop
         vertex 4.883340e+00 1.003510e+02 7.461387e+01
         vertex 0.000000e+00 9.998827e+01 7.487686e+01
         vertex 0.000000e+00 1.003510e+02 7.461387e+01
      endloop
   endfacet
   facet normal -0.000000e+00 -7.165716e-01 -6.975136e-01
      outer loop
         vertex 4.883340e+00 1.003510e+02 7.461387e+01
         vertex 0.000000e+00 1.003510e+02 7.461387e+01
         vertex 4.883340e+00 1.006635e+02 7.429283e+01
      endloop
   endfacet
   facet normal -0.000000e+00 -7.165716e-01 -6.975136e-01
      outer loop
         vertex 4.883340e+00 1.006635e+02 7.429283e+01
         vertex 0.000000e+00 1.003510e+02 7.461387e+01
         vertex 0.000000e+00 1.006635e+02 7.429283e+01
      endloop
   endfacet
   facet normal -0.000000e+00 -8.251196e-01 -5.649581e-01
      outer loop
         vertex 4.883340e+00 1.006635e+02 7.429283e+01
         vertex 0.000000e+00 1.006635e+02 7.429283e+01
         vertex 4.883340e+00 1.009166e+02 7.392316e+01
      endloop
   endfacet
   facet normal -0.000000e+00 -8.251196e-01 -5.649581e-01
      outer loop
         vertex 4.883340e+00 1.009166e+02 7.392316e+01
         vertex 0.000000e+00 1.006635e+02 7.429283e+01
         vertex 0.000000e+00 1.009166e+02 7.392316e+01
      endloop
   endfacet
   facet normal -0.000000e+00 -9.094479e-01 -4.158179e-01
      outer loop
         vertex 4.883340e+00 1.009166e+02 7.392316e+01
         vertex 0.000000e+00 1.009166e+02 7.392316e+01
         vertex 4.883340e+00 1.011029e+02 7.351571e+01
      endloop
   endfacet
   facet normal -0.000000e+00 -9.094479e-01 -4.158179e-01
      outer loop
         vertex 4.883340e+00 1.011029e+02 7.351571e+01
         vertex 0.000000e+00 1.009166e+02 7.392316e+01
         vertex 0.000000e+00 1.011029e+02 7.351571e+01
      endloop
   endfacet
   facet normal -0.000000e+00 -9.670804e-01 -2.544712e-01
      outer loop
         vertex 4.883340e+00 1.011029e+02 7.351571e+01
         vertex 0.000000e+00 1.011029e+02 7.351571e+01
         vertex 4.883340e+00 1.012169e+02 7.308244e+01
      endloop
   endfacet
   facet normal -0.000000e+00 -9.670804e-01 -2.544712e-01
      outer loop
         vertex 4.883340e+00 1.012169e+02 7.308244e+01
         vertex 0.000000e+00 1.011029e+02 7.351571e+01
         vertex 0.000000e+00 1.012169e+02 7.308244e+01
      endloop
   endfacet
   facet normal -0.000000e+00 -9.963243e-01 -8.566151e-02
      outer loop
         vertex 4.883340e+00 1.012169e+02 7.308244e+01
         vertex 0.000000e+00 1.012169e+02 7.308244e+01
         vertex 4.883340e+00 1.012553e+02 7.263607e+01
      endloop
   endfacet
   facet normal -0.000000e+00 -9.963243e-01 -8.566151e-02
      outer loop
         vertex 4.883340e+00 1.012553e+02 7.263607e+01
         vertex 0.000000e+00 1.012169e+02 7.308244e+01
         vertex 0.000000e+00 1.012553e+02 7.263607e+01
      endloop
   endfacet
   facet normal 1.000000e+00 0.000000e+00 -0.000000e+00
      outer loop
         vertex 4.883340e+00 1.012553e+02 7.263607e+01
         vertex 4.883340e+00 1.022537e+02 7.269154e+01
         vertex 4.883340e+00 1.012169e+02 7.308244e+01
      endloop
   endfacet
   facet normal 1.000000e+00 -0.000000e+00 0.000000e+00
      outer loop
         vertex 4.883340e+00 1.012169e+02 7.308244e+01
         vertex 4.883340e+00 1.022537e+02 7.269154e+01
         vertex 4.883340e+00 1.021912e+02 7.330753e+01
      endloop
   endfacet
   facet normal 1.000000e+00 0.000000e+00 -0.000000e+00
      outer loop
         vertex 4.883340e+00 1.012169e+02 7.308244e+01
         vertex 4.883340e+00 1.021912e+02 7.330753e+01
         vertex 4.883340e+00 1.011029e+02 7.351571e+01
      endloop
   endfacet
   facet normal 1.000000e+00 -0.000000e+00 0.000000e+00
      outer loop
         vertex 4.883340e+00 1.011029e+02 7.351571e+01
         vertex 4.883340e+00 1.021912e+02 7.330753e+01
         vertex 4.883340e+00 1.020245e+02 7.390381e+01
      endloop
   endfacet
   facet normal 1.000000e+00 0.000000e+00 -0.000000e+00
      outer loop
         vertex 4.883340e+00 1.011029e+02 7.351571e+01
         vertex 4.883340e+00 1.020245e+02 7.390381e+01
         vertex 4.883340e+00 1.009166e+02 7.392316e+01
      endloop
   endfacet
   facet normal 1.000000e+00 -0.000000e+00 0.000000e+00
      outer loop
         vertex 4.883340e+00 1.009166e+02 7.392316e+01
         vertex 4.883340e+00 1.020245e+02 7.390381e+01
         vertex 4.883340e+00 1.017584e+02 7.446288e+01
      endloop
   endfacet
   facet normal 1.000000e+00 0.000000e+00 -0.000000e+00
      outer loop
         vertex 4.883340e+00 1.009166e+02 7.392316e+01
         vertex 4.883340e+00 1.017584e+02 7.446288e+01
         vertex 4.883340e+00 1.006635e+02 7.429283e+01
      endloop
   endfacet
   facet normal 1.000000e+00 0.000000e+00 0.000000e+00
      outer loop
         vertex 4.883340e+00 1.006635e+02 7.429283e+01
         vertex 4.883340e+00 1.017584e+02 7.446288e+01
         vertex 4.883340e+00 1.014008e+02 7.496834e+01
      endloop
   endfacet
   facet normal 1.000000e+00 0.000000e+00 -0.000000e+00
      outer loop
         vertex 4.883340e+00 1.006635e+02 7.429283e+01
         vertex 4.883340e+00 1.014008e+02 7.496834e+01
         vertex 4.883340e+00 1.003510e+02 7.461387e+01
      endloop
   endfacet
   facet normal 1.000000e+00 0.000000e+00 0.000000e+00
      outer loop
         vertex 4.883340e+00 1.003510e+02 7.461387e+01
         vertex 4.883340e+00 1.014008e+02 7.496834e+01
         vertex 4.883340e+00 1.009622e+02 7.540532e+01
      endloop
   endfacet
   facet normal 1.000000e+00 0.000000e+00 -0.000000e+00
      outer loop
         vertex 4.883340e+00 1.003510e+02 7.461387e+01
         vertex 4.883340e+00 1.009622e+02 7.540532e+01
         vertex 4.883340e+00 9.998827e+01 7.487686e+01
      endloop
   endfacet
   facet normal 1.000000e+00 0.000000e+00 0.000000e+00
      outer loop
         vertex 4.883340e+00 9.998827e+01 7.487686e+01
         vertex 4.883340e+00 1.009622e+02 7.540532e+01
         vertex 4.883340e+00 1.004554e+02 7.576103e+01
      endloop
   endfacet
   facet normal 1.000000e+00 0.000000e+00 -0.000000e+00
      outer loop
         vertex 4.883340e+00 9.998827e+01 7.487686e+01
         vertex 4.883340e+00 1.004554e+02 7.576103e+01
         vertex 4.883340e+00 9.958600e+01 7.507407e+01
      endloop
   endfacet
   facet normal 1.000000e+00 0.000000e+00 0.000000e+00
      outer loop
         vertex 4.883340e+00 9.958600e+01 7.507407e+01
         vertex 4.883340e+00 1.004554e+02 7.576103e+01
         vertex 4.883340e+00 9.989537e+01 7.602501e+01
      endloop
   endfacet
   facet normal 1.000000e+00 0.000000e+00 -0.000000e+00
      outer loop
         vertex 4.883340e+00 9.958600e+01 7.507407e+01
         vertex 4.883340e+00 9.989537e+01 7.602501e+01
         vertex 4.883340e+00 9.915596e+01 7.519972e+01
      endloop
   endfacet
   facet normal 1.000000e+00 0.000000e+00 0.000000e+00
      outer loop
         vertex 4.883340e+00 9.915596e+01 7.519972e+01
         vertex 4.883340e+00 9.989537e+01 7.602501e+01
         vertex 4.883340e+00 9.929847e+01 7.618951e+01
      endloop
   endfacet
   facet normal 1.000000e+00 0.000000e+00 -0.000000e+00
      outer loop
         vertex 4.883340e+00 9.915596e+01 7.519972e+01
         vertex 4.883340e+00 9.929847e+01 7.618951e+01
         vertex 4.883340e+00 9.871078e+01 7.525012e+01
      endloop
   endfacet
   facet normal 1.000000e+00 0.000000e+00 -0.000000e+00
      outer loop
         vertex 4.883340e+00 9.871078e+01 7.525012e+01
         vertex 4.883340e+00 9.929847e+01 7.618951e+01
         vertex 4.883340e+00 9.868225e+01 7.624971e+01
      endloop
   endfacet
   facet normal 0.000000e+00 1.000000e+00 0.000000e+00
      outer loop
         vertex 4.883340e+00 1.022537e+02 7.269154e+01
         vertex 4.883340e+00 1.022537e+02 6.269154e+01
         vertex 0.000000e+00 1.022537e+02 7.269154e+01
      endloop
   endfacet
   facet normal 0.000000e+00 1.000000e+00 0.000000e+00
      outer loop
         vertex 0.000000e+00 1.022537e+02 7.269154e+01
         vertex 4.883340e+00 1.022537e+02 6.269154e+01
         vertex 0.000000e+00 1.022537e+02 6.269154e+01
      endloop
   endfacet
   facet normal -1.000000e+00 0.000000e+00 -0.000000e+00
      outer loop
         vertex 0.000000e+00 1.022537e+02 7.269154e+01
         vertex 0.000000e+00 1.022537e+02 6.269154e+01
         vertex 0.000000e+00 1.012553e+02 7.263607e+01
      endloop
   endfacet
   facet normal -1.000000e+00 0.000000e+00 0.000000e+00
      outer loop
         vertex 0.000000e+00 1.012553e+02 7.263607e+01
         vertex 0.000000e+00 1.022537e+02 6.269154e+01
         vertex 0.000000e+00 1.012553e+02 6.263607e+01
      endloop
   endfacet
   facet normal 0.000000e+00 -1.000000e+00 0.000000e+00
      outer loop
         vertex 0.000000e+00 1.012553e+02 7.263607e+01
         vertex 0.000000e+00 1.012553e+02 6.263607e+01
         vertex 4.883340e+00 1.012553e+02 7.263607e+01
      endloop
   endfacet
   facet normal 0.000000e+00 -1.000000e+00 -0.000000e+00
      outer loop
         vertex 4.883340e+00 1.012553e+02 7.263607e+01
         vertex 0.000000e+00 1.012553e+02 6.263607e+01
         vertex 4.883340e+00 1.012553e+02 6.263607e+01
      endloop
   endfacet
   facet normal 1.000000e+00 0.000000e+00 0.000000e+00
      outer loop
         vertex 4.883340e+00 1.022537e+02 7.269154e+01
         vertex 4.883340e+00 1.012553e+02 7.263607e+01
         vertex 4.883340e+00 1.022537e+02 6.269154e+01
      endloop
   endfacet
   facet normal 1.000000e+00 0.000000e+00 0.000000e+00
      outer loop
         vertex 4.883340e+00 1.022537e+02 6.269154e+01
         vertex 4.883340e+00 1.012553e+02 7.263607e+01
         vertex 4.883340e+00 1.012553e+02 6.263607e+01
      endloop
   endfacet
   facet normal -0.000000e+00 -1.522063e-02 -9.998842e-01
      outer loop
         vertex 4.883340e+00 9.828127e+01 5.904006e+01
         vertex 0.000000e+00 9.828127e+01 5.904006e+01
         vertex 0.000000e+00 9.888966e+01 5.903080e+01
      endloop
   endfacet
   facet normal 0.000000e+00 -1.522063e-02 -9.998842e-01
      outer loop
         vertex 4.883340e+00 9.828127e+01 5.904006e+01
         vertex 0.000000e+00 9.888966e+01 5.903080e+01
         vertex 4.883340e+00 9.888966e+01 5.903080e+01
      endloop
   endfacet
   facet normal 0.000000e+00 1.527454e-01 -9.882656e-01
      outer loop
         vertex 4.883340e+00 9.888966e+01 5.903080e+01
         vertex 0.000000e+00 9.888966e+01 5.903080e+01
         vertex 0.000000e+00 9.949097e+01 5.912374e+01
      endloop
   endfacet
   facet normal 0.000000e+00 1.527454e-01 -9.882656e-01
      outer loop
         vertex 4.883340e+00 9.888966e+01 5.903080e+01
         vertex 0.000000e+00 9.949097e+01 5.912374e+01
         vertex 4.883340e+00 9.949097e+01 5.912374e+01
      endloop
   endfacet
   facet normal 0.000000e+00 3.163784e-01 -9.486331e-01
      outer loop
         vertex 4.883340e+00 9.949097e+01 5.912374e+01
         vertex 0.000000e+00 9.949097e+01 5.912374e+01
         vertex 0.000000e+00 1.000682e+02 5.931624e+01
      endloop
   endfacet
   facet normal 0.000000e+00 3.163784e-01 -9.486331e-01
      outer loop
         vertex 4.883340e+00 9.949097e+01 5.912374e+01
         vertex 0.000000e+00 1.000682e+02 5.931624e+01
         vertex 4.883340e+00 1.000682e+02 5.931624e+01
      endloop
   endfacet
   facet normal 0.000000e+00 4.710385e-01 -8.821127e-01
      outer loop
         vertex 4.883340e+00 1.000682e+02 5.931624e+01
         vertex 0.000000e+00 1.000682e+02 5.931624e+01
         vertex 0.000000e+00 1.006049e+02 5.960284e+01
      endloop
   endfacet
   facet normal 0.000000e+00 4.710385e-01 -8.821127e-01
      outer loop
         vertex 4.883340e+00 1.000682e+02 5.931624e+01
         vertex 0.000000e+00 1.006049e+02 5.960284e+01
         vertex 4.883340e+00 1.006049e+02 5.960284e+01
      endloop
   endfacet
   facet normal 0.000000e+00 6.123588e-01 -7.905800e-01
      outer loop
         vertex 4.883340e+00 1.006049e+02 5.960284e+01
         vertex 0.000000e+00 1.006049e+02 5.960284e+01
         vertex 0.000000e+00 1.010859e+02 5.997543e+01
      endloop
   endfacet
   facet normal 0.000000e+00 6.123588e-01 -7.905800e-01
      outer loop
         vertex 4.883340e+00 1.006049e+02 5.960284e+01
         vertex 0.000000e+00 1.010859e+02 5.997543e+01
         vertex 4.883340e+00 1.010859e+02 5.997543e+01
      endloop
   endfacet
   facet normal 0.000000e+00 7.363124e-01 -6.766418e-01
      outer loop
         vertex 4.883340e+00 1.010859e+02 5.997543e+01
         vertex 0.000000e+00 1.010859e+02 5.997543e+01
         vertex 0.000000e+00 1.014976e+02 6.042344e+01
      endloop
   endfacet
   facet normal 0.000000e+00 7.363124e-01 -6.766418e-01
      outer loop
         vertex 4.883340e+00 1.010859e+02 5.997543e+01
         vertex 0.000000e+00 1.014976e+02 6.042344e+01
         vertex 4.883340e+00 1.014976e+02 6.042344e+01
      endloop
   endfacet
   facet normal 0.000000e+00 8.393945e-01 -5.435226e-01
      outer loop
         vertex 4.883340e+00 1.014976e+02 6.042344e+01
         vertex 0.000000e+00 1.014976e+02 6.042344e+01
         vertex 0.000000e+00 1.018283e+02 6.093418e+01
      endloop
   endfacet
   facet normal 0.000000e+00 8.393945e-01 -5.435226e-01
      outer loop
         vertex 4.883340e+00 1.014976e+02 6.042344e+01
         vertex 0.000000e+00 1.018283e+02 6.093418e+01
         vertex 4.883340e+00 1.018283e+02 6.093418e+01
      endloop
   endfacet
   facet normal 0.000000e+00 9.186805e-01 -3.950016e-01
      outer loop
         vertex 4.883340e+00 1.018283e+02 6.093418e+01
         vertex 0.000000e+00 1.018283e+02 6.093418e+01
         vertex 0.000000e+00 1.020687e+02 6.149315e+01
      endloop
   endfacet
   facet normal 0.000000e+00 9.186805e-01 -3.950016e-01
      outer loop
         vertex 4.883340e+00 1.018283e+02 6.093418e+01
         vertex 0.000000e+00 1.020687e+02 6.149315e+01
         vertex 4.883340e+00 1.020687e+02 6.149315e+01
      endloop
   endfacet
   facet normal 0.000000e+00 9.719312e-01 -2.352653e-01
      outer loop
         vertex 4.883340e+00 1.020687e+02 6.149315e+01
         vertex 0.000000e+00 1.020687e+02 6.149315e+01
         vertex 0.000000e+00 1.022118e+02 6.208453e+01
      endloop
   endfacet
   facet normal 0.000000e+00 9.719312e-01 -2.352653e-01
      outer loop
         vertex 4.883340e+00 1.020687e+02 6.149315e+01
         vertex 0.000000e+00 1.022118e+02 6.208453e+01
         vertex 4.883340e+00 1.022118e+02 6.208453e+01
      endloop
   endfacet
   facet normal 0.000000e+00 9.976251e-01 -6.887858e-02
      outer loop
         vertex 4.883340e+00 1.022118e+02 6.208453e+01
         vertex 0.000000e+00 1.022118e+02 6.208453e+01
         vertex 0.000000e+00 1.022537e+02 6.269154e+01
      endloop
   endfacet
   facet normal 0.000000e+00 9.976251e-01 -6.887858e-02
      outer loop
         vertex 4.883340e+00 1.022118e+02 6.208453e+01
         vertex 0.000000e+00 1.022537e+02 6.269154e+01
         vertex 4.883340e+00 1.022537e+02 6.269154e+01
      endloop
   endfacet
   facet normal -1.000000e+00 0.000000e+00 -0.000000e+00
      outer loop
         vertex 0.000000e+00 1.012553e+02 6.263607e+01
         vertex 0.000000e+00 1.022537e+02 6.269154e+01
         vertex 0.000000e+00 1.012182e+02 6.219736e+01
      endloop
   endfacet
   facet normal -1.000000e+00 0.000000e+00 0.000000e+00
      outer loop
         vertex 0.000000e+00 1.012182e+02 6.219736e+01
         vertex 0.000000e+00 1.022537e+02 6.269154e+01
         vertex 0.000000e+00 1.022118e+02 6.208453e+01
      endloop
   endfacet
   facet normal -1.000000e+00 0.000000e+00 -0.000000e+00
      outer loop
         vertex 0.000000e+00 1.012182e+02 6.219736e+01
         vertex 0.000000e+00 1.022118e+02 6.208453e+01
         vertex 0.000000e+00 1.011081e+02 6.177108e+01
      endloop
   endfacet
   facet normal -1.000000e+00 0.000000e+00 0.000000e+00
      outer loop
         vertex 0.000000e+00 1.011081e+02 6.177108e+01
         vertex 0.000000e+00 1.022118e+02 6.208453e+01
         vertex 0.000000e+00 1.020687e+02 6.149315e+01
      endloop
   endfacet
   facet normal -1.000000e+00 0.000000e+00 -0.000000e+00
      outer loop
         vertex 0.000000e+00 1.011081e+02 6.177108e+01
         vertex 0.000000e+00 1.020687e+02 6.149315e+01
         vertex 0.000000e+00 1.009280e+02 6.136932e+01
      endloop
   endfacet
   facet normal -1.000000e+00 0.000000e+00 0.000000e+00
      outer loop
         vertex 0.000000e+00 1.009280e+02 6.136932e+01
         vertex 0.000000e+00 1.020687e+02 6.149315e+01
         vertex 0.000000e+00 1.018283e+02 6.093418e+01
      endloop
   endfacet
   facet normal -1.000000e+00 0.000000e+00 -0.000000e+00
      outer loop
         vertex 0.000000e+00 1.009280e+02 6.136932e+01
         vertex 0.000000e+00 1.018283e+02 6.093418e+01
         vertex 0.000000e+00 1.006830e+02 6.100347e+01
      endloop
   endfacet
   facet normal -1.000000e+00 0.000000e+00 0.000000e+00
      outer loop
         vertex 0.000000e+00 1.006830e+02 6.100347e+01
         vertex 0.000000e+00 1.018283e+02 6.093418e+01
         vertex 0.000000e+00 1.014976e+02 6.042344e+01
      endloop
   endfacet
   facet normal -1.000000e+00 0.000000e+00 -0.000000e+00
      outer loop
         vertex 0.000000e+00 1.006830e+02 6.100347e+01
         vertex 0.000000e+00 1.014976e+02 6.042344e+01
         vertex 0.000000e+00 1.003802e+02 6.068390e+01
      endloop
   endfacet
   facet normal -1.000000e+00 0.000000e+00 0.000000e+00
      outer loop
         vertex 0.000000e+00 1.003802e+02 6.068390e+01
         vertex 0.000000e+00 1.014976e+02 6.042344e+01
         vertex 0.000000e+00 1.010859e+02 5.997543e+01
      endloop
   endfacet
   facet normal -1.000000e+00 0.000000e+00 -0.000000e+00
      outer loop
         vertex 0.000000e+00 1.003802e+02 6.068390e+01
         vertex 0.000000e+00 1.010859e+02 5.997543e+01
         vertex 0.000000e+00 1.000280e+02 6.041967e+01
      endloop
   endfacet
   facet normal -1.000000e+00 0.000000e+00 0.000000e+00
      outer loop
         vertex 0.000000e+00 1.000280e+02 6.041967e+01
         vertex 0.000000e+00 1.010859e+02 5.997543e+01
         vertex 0.000000e+00 1.006049e+02 5.960284e+01
      endloop
   endfacet
   facet normal -1.000000e+00 0.000000e+00 -0.000000e+00
      outer loop
         vertex 0.000000e+00 1.000280e+02 6.041967e+01
         vertex 0.000000e+00 1.006049e+02 5.960284e+01
         vertex 0.000000e+00 9.963650e+01 6.021827e+01
      endloop
   endfacet
   facet normal -1.000000e+00 0.000000e+00 0.000000e+00
      outer loop
         vertex 0.000000e+00 9.963650e+01 6.021827e+01
         vertex 0.000000e+00 1.006049e+02 5.960284e+01
         vertex 0.000000e+00 1.000682e+02 5.931624e+01
      endloop
   endfacet
   facet normal -1.000000e+00 0.000000e+00 -0.000000e+00
      outer loop
         vertex 0.000000e+00 9.963650e+01 6.021827e+01
         vertex 0.000000e+00 1.000682e+02 5.931624e+01
         vertex 0.000000e+00 9.921675e+01 6.008540e+01
      endloop
   endfacet
   facet normal -1.000000e+00 0.000000e+00 0.000000e+00
      outer loop
         vertex 0.000000e+00 9.921675e+01 6.008540e+01
         vertex 0.000000e+00 1.000682e+02 5.931624e+01
         vertex 0.000000e+00 9.949097e+01 5.912374e+01
      endloop
   endfacet
   facet normal -1.000000e+00 0.000000e+00 -0.000000e+00
      outer loop
         vertex 0.000000e+00 9.921675e+01 6.008540e+01
         vertex 0.000000e+00 9.949097e+01 5.912374e+01
         vertex 0.000000e+00 9.878066e+01 6.002484e+01
      endloop
   endfacet
   facet normal -1.000000e+00 0.000000e+00 0.000000e+00
      outer loop
         vertex 0.000000e+00 9.878066e+01 6.002484e+01
         vertex 0.000000e+00 9.949097e+01 5.912374e+01
         vertex 0.000000e+00 9.888966e+01 5.903080e+01
      endloop
   endfacet
   facet normal -1.000000e+00 -0.000000e+00 -0.000000e+00
      outer loop
         vertex 0.000000e+00 9.878066e+01 6.002484e+01
         vertex 0.000000e+00 9.888966e+01 5.903080e+01
         vertex 0.000000e+00 9.834059e+01 6.003830e+01
      endloop
   endfacet
   facet normal -1.000000e+00 0.000000e+00 -0.000000e+00
      outer loop
         vertex 0.000000e+00 9.834059e+01 6.003830e+01
         vertex 0.000000e+00 9.888966e+01 5.903080e+01
         vertex 0.000000e+00 9.828127e+01 5.904006e+01
      endloop
   endfacet
   facet normal 0.000000e+00 -9.964498e-01 8.418962e-02
      outer loop
         vertex 4.883340e+00 1.012553e+02 6.263607e+01
         vertex 0.000000e+00 1.012553e+02 6.263607e+01
         vertex 4.883340e+00 1.012182e+02 6.219736e+01
      endloop
   endfacet
   facet normal 0.000000e+00 -9.964498e-01 8.418962e-02
      outer loop
         vertex 4.883340e+00 1.012182e+02 6.219736e+01
         vertex 0.000000e+00 1.012553e+02 6.263607e+01
         vertex 0.000000e+00 1.012182e+02 6.219736e+01
      endloop
   endfacet
   facet normal 0.000000e+00 -9.682073e-01 2.501493e-01
      outer loop
         vertex 4.883340e+00 1.012182e+02 6.219736e+01
         vertex 0.000000e+00 1.012182e+02 6.219736e+01
         vertex 4.883340e+00 1.011081e+02 6.177108e+01
      endloop
   endfacet
   facet normal 0.000000e+00 -9.682073e-01 2.501493e-01
      outer loop
         vertex 4.883340e+00 1.011081e+02 6.177108e+01
         vertex 0.000000e+00 1.012182e+02 6.219736e+01
         vertex 0.000000e+00 1.011081e+02 6.177108e+01
      endloop
   endfacet
   facet normal 0.000000e+00 -9.125117e-01 4.090506e-01
      outer loop
         vertex 4.883340e+00 1.011081e+02 6.177108e+01
         vertex 0.000000e+00 1.011081e+02 6.177108e+01
         vertex 4.883340e+00 1.009280e+02 6.136932e+01
      endloop
   endfacet
   facet normal 0.000000e+00 -9.125117e-01 4.090506e-01
      outer loop
         vertex 4.883340e+00 1.009280e+02 6.136932e+01
         vertex 0.000000e+00 1.011081e+02 6.177108e+01
         vertex 0.000000e+00 1.009280e+02 6.136932e+01
      endloop
   endfacet
   facet normal 0.000000e+00 -8.309526e-01 5.563432e-01
      outer loop
         vertex 4.883340e+00 1.009280e+02 6.136932e+01
         vertex 0.000000e+00 1.009280e+02 6.136932e+01
         vertex 4.883340e+00 1.006830e+02 6.100347e+01
      endloop
   endfacet
   facet normal 0.000000e+00 -8.309526e-01 5.563432e-01
      outer loop
         vertex 4.883340e+00 1.006830e+02 6.100347e+01
         vertex 0.000000e+00 1.009280e+02 6.136932e+01
         vertex 0.000000e+00 1.006830e+02 6.100347e+01
      endloop
   endfacet
   facet normal 0.000000e+00 -7.258388e-01 6.878648e-01
      outer loop
         vertex 4.883340e+00 1.006830e+02 6.100347e+01
         vertex 0.000000e+00 1.006830e+02 6.100347e+01
         vertex 4.883340e+00 1.003802e+02 6.068390e+01
      endloop
   endfacet
   facet normal 0.000000e+00 -7.258388e-01 6.878648e-01
      outer loop
         vertex 4.883340e+00 1.003802e+02 6.068390e+01
         vertex 0.000000e+00 1.006830e+02 6.100347e+01
         vertex 0.000000e+00 1.003802e+02 6.068390e+01
      endloop
   endfacet
   facet normal 0.000000e+00 -6.001462e-01 7.998903e-01
      outer loop
         vertex 4.883340e+00 1.003802e+02 6.068390e+01
         vertex 0.000000e+00 1.003802e+02 6.068390e+01
         vertex 4.883340e+00 1.000280e+02 6.041967e+01
      endloop
   endfacet
   facet normal 0.000000e+00 -6.001462e-01 7.998903e-01
      outer loop
         vertex 4.883340e+00 1.000280e+02 6.041967e+01
         vertex 0.000000e+00 1.003802e+02 6.068390e+01
         vertex 0.000000e+00 1.000280e+02 6.041967e+01
      endloop
   endfacet
   facet normal 0.000000e+00 -4.574528e-01 8.892339e-01
      outer loop
         vertex 4.883340e+00 1.000280e+02 6.041967e+01
         vertex 0.000000e+00 1.000280e+02 6.041967e+01
         vertex 4.883340e+00 9.963650e+01 6.021827e+01
      endloop
   endfacet
   facet normal 0.000000e+00 -4.574528e-01 8.892339e-01
      outer loop
         vertex 4.883340e+00 9.963650e+01 6.021827e+01
         vertex 0.000000e+00 1.000280e+02 6.041967e+01
         vertex 0.000000e+00 9.963650e+01 6.021827e+01
      endloop
   endfacet
   facet normal 0.000000e+00 -3.017784e-01 9.533781e-01
      outer loop
         vertex 4.883340e+00 9.963650e+01 6.021827e+01
         vertex 0.000000e+00 9.963650e+01 6.021827e+01
         vertex 4.883340e+00 9.921675e+01 6.008540e+01
      endloop
   endfacet
   facet normal 0.000000e+00 -3.017784e-01 9.533781e-01
      outer loop
         vertex 4.883340e+00 9.921675e+01 6.008540e+01
         vertex 0.000000e+00 9.963650e+01 6.021827e+01
         vertex 0.000000e+00 9.921675e+01 6.008540e+01
      endloop
   endfacet
   facet normal 0.000000e+00 -1.375550e-01 9.904941e-01
      outer loop
         vertex 4.883340e+00 9.921675e+01 6.008540e+01
         vertex 0.000000e+00 9.921675e+01 6.008540e+01
         vertex 4.883340e+00 9.878066e+01 6.002484e+01
      endloop
   endfacet
   facet normal 0.000000e+00 -1.375550e-01 9.904941e-01
      outer loop
         vertex 4.883340e+00 9.878066e+01 6.002484e+01
         vertex 0.000000e+00 9.921675e+01 6.008540e+01
         vertex 0.000000e+00 9.878066e+01 6.002484e+01
      endloop
   endfacet
   facet normal 0.000000e+00 3.057065e-02 9.995326e-01
      outer loop
         vertex 4.883340e+00 9.878066e+01 6.002484e+01
         vertex 0.000000e+00 9.878066e+01 6.002484e+01
         vertex 4.883340e+00 9.834059e+01 6.003830e+01
      endloop
   endfacet
   facet normal 0.000000e+00 3.057065e-02 9.995326e-01
      outer loop
         vertex 4.883340e+00 9.834059e+01 6.003830e+01
         vertex 0.000000e+00 9.878066e+01 6.002484e+01
         vertex 0.000000e+00 9.834059e+01 6.003830e+01
      endloop
   endfacet
   facet normal 1.000000e+00 0.000000e+00 0.000000e+00
      outer loop
         vertex 4.883340e+00 9.834059e+01 6.003830e+01
         vertex 4.883340e+00 9.828127e+01 5.904006e+01
         vertex 4.883340e+00 9.878066e+01 6.002484e+01
      endloop
   endfacet
   facet normal 1.000000e+00 0.000000e+00 0.000000e+00
      outer loop
         vertex 4.883340e+00 9.878066e+01 6.002484e+01
         vertex 4.883340e+00 9.828127e+01 5.904006e+01
         vertex 4.883340e+00 9.888966e+01 5.903080e+01
      endloop
   endfacet
   facet normal 1.000000e+00 -0.000000e+00 0.000000e+00
      outer loop
         vertex 4.883340e+00 9.878066e+01 6.002484e+01
         vertex 4.883340e+00 9.888966e+01 5.903080e+01
         vertex 4.883340e+00 9.921675e+01 6.008540e+01
      endloop
   endfacet
   facet normal 1.000000e+00 0.000000e+00 0.000000e+00
      outer loop
         vertex 4.883340e+00 9.921675e+01 6.008540e+01
         vertex 4.883340e+00 9.888966e+01 5.903080e+01
         vertex 4.883340e+00 9.949097e+01 5.912374e+01
      endloop
   endfacet
   facet normal 1.000000e+00 -0.000000e+00 0.000000e+00
      outer loop
         vertex 4.883340e+00 9.921675e+01 6.008540e+01
         vertex 4.883340e+00 9.949097e+01 5.912374e+01
         vertex 4.883340e+00 9.963650e+01 6.021827e+01
      endloop
   endfacet
   facet normal 1.000000e+00 0.000000e+00 0.000000e+00
      outer loop
         vertex 4.883340e+00 9.963650e+01 6.021827e+01
         vertex 4.883340e+00 9.949097e+01 5.912374e+01
         vertex 4.883340e+00 1.000682e+02 5.931624e+01
      endloop
   endfacet
   facet normal 1.000000e+00 -0.000000e+00 0.000000e+00
      outer loop
         vertex 4.883340e+00 9.963650e+01 6.021827e+01
         vertex 4.883340e+00 1.000682e+02 5.931624e+01
         vertex 4.883340e+00 1.000280e+02 6.041967e+01
      endloop
   endfacet
   facet normal 1.000000e+00 0.000000e+00 0.000000e+00
      outer loop
         vertex 4.883340e+00 1.000280e+02 6.041967e+01
         vertex 4.883340e+00 1.000682e+02 5.931624e+01
         vertex 4.883340e+00 1.006049e+02 5.960284e+01
      endloop
   endfacet
   facet normal 1.000000e+00 -0.000000e+00 0.000000e+00
      outer loop
         vertex 4.883340e+00 1.000280e+02 6.041967e+01
         vertex 4.883340e+00 1.006049e+02 5.960284e+01
         vertex 4.883340e+00 1.003802e+02 6.068390e+01
      endloop
   endfacet
   facet normal 1.000000e+00 0.000000e+00 0.000000e+00
      outer loop
         vertex 4.883340e+00 1.003802e+02 6.068390e+01
         vertex 4.883340e+00 1.006049e+02 5.960284e+01
         vertex 4.883340e+00 1.010859e+02 5.997543e+01
      endloop
   endfacet
   facet normal 1.000000e+00 -0.000000e+00 0.000000e+00
      outer loop
         vertex 4.883340e+00 1.003802e+02 6.068390e+01
         vertex 4.883340e+00 1.010859e+02 5.997543e+01
         vertex 4.883340e+00 1.006830e+02 6.100347e+01
      endloop
   endfacet
   facet normal 1.000000e+00 0.000000e+00 0.000000e+00
      outer loop
         vertex 4.883340e+00 1.006830e+02 6.100347e+01
         vertex 4.883340e+00 1.010859e+02 5.997543e+01
         vertex 4.883340e+00 1.014976e+02 6.042344e+01
      endloop
   endfacet
   facet normal 1.000000e+00 -0.000000e+00 0.000000e+00
      outer loop
         vertex 4.883340e+00 1.006830e+02 6.100347e+01
         vertex 4.883340e+00 1.014976e+02 6.042344e+01
         vertex 4.883340e+00 1.009280e+02 6.136932e+01
      endloop
   endfacet
   facet normal 1.000000e+00 0.000000e+00 0.000000e+00
      outer loop
         vertex 4.883340e+00 1.009280e+02 6.136932e+01
         vertex 4.883340e+00 1.014976e+02 6.042344e+01
         vertex 4.883340e+00 1.018283e+02 6.093418e+01
      endloop
   endfacet
   facet normal 1.000000e+00 -0.000000e+00 0.000000e+00
      outer loop
         vertex 4.883340e+00 1.009280e+02 6.136932e+01
         vertex 4.883340e+00 1.018283e+02 6.093418e+01
         vertex 4.883340e+00 1.011081e+02 6.177108e+01
      endloop
   endfacet
   facet normal 1.000000e+00 0.000000e+00 0.000000e+00
      outer loop
         vertex 4.883340e+00 1.011081e+02 6.177108e+01
         vertex 4.883340e+00 1.018283e+02 6.093418e+01
         vertex 4.883340e+00 1.020687e+02 6.149315e+01
      endloop
   endfacet
   facet normal 1.000000e+00 -0.000000e+00 0.000000e+00
      outer loop
         vertex 4.883340e+00 1.011081e+02 6.177108e+01
         vertex 4.883340e+00 1.020687e+02 6.149315e+01
         vertex 4.883340e+00 1.012182e+02 6.219736e+01
      endloop
   endfacet
   facet normal 1.000000e+00 0.000000e+00 0.000000e+00
      outer loop
         vertex 4.883340e+00 1.012182e+02 6.219736e+01
         vertex 4.883340e+00 1.020687e+02 6.149315e+01
         vertex 4.883340e+00 1.022118e+02 6.208453e+01
      endloop
   endfacet
   facet normal 1.000000e+00 -0.000000e+00 0.000000e+00
      outer loop
         vertex 4.883340e+00 1.012182e+02 6.219736e+01
         vertex 4.883340e+00 1.022118e+02 6.208453e+01
         vertex 4.883340e+00 1.012553e+02 6.263607e+01
      endloop
   endfacet
   facet normal 1.000000e+00 -0.000000e+00 0.000000e+00
      outer loop
         vertex 4.883340e+00 1.012553e+02 6.263607e+01
         vertex 4.883340e+00 1.022118e+02 6.208453e+01
         vertex 4.883340e+00 1.022537e+02 6.269154e+01
      endloop
   endfacet
   facet normal -0.000000e+00 -1.146017e-01 -9.934115e-01
      outer loop
         vertex 4.883340e+00 9.828127e+01 5.904006e+01
         vertex 4.883340e+00 2.788945e+01 6.716058e+01
         vertex 0.000000e+00 9.828127e+01 5.904006e+01
      endloop
   endfacet
   facet normal 0.000000e+00 -1.146017e-01 -9.934115e-01
      outer loop
         vertex 0.000000e+00 9.828127e+01 5.904006e+01
         vertex 4.883340e+00 2.788945e+01 6.716058e+01
         vertex 0.000000e+00 2.788945e+01 6.716058e+01
      endloop
   endfacet
   facet normal -1.000000e+00 0.000000e+00 0.000000e+00
      outer loop
         vertex 0.000000e+00 9.828127e+01 5.904006e+01
         vertex 0.000000e+00 2.788945e+01 6.716058e+01
         vertex 0.000000e+00 9.834059e+01 6.003830e+01
      endloop
   endfacet
   facet normal -1.000000e+00 0.000000e+00 0.000000e+00
      outer loop
         vertex 0.000000e+00 9.834059e+01 6.003830e+01
         vertex 0.000000e+00 2.788945e+01 6.716058e+01
         vertex 0.000000e+00 2.794877e+01 6.815882e+01
      endloop
   endfacet
   facet normal -0.000000e+00 1.146017e-01 9.934115e-01
      outer loop
         vertex 0.000000e+00 9.834059e+01 6.003830e+01
         vertex 0.000000e+00 2.794877e+01 6.815882e+01
         vertex 4.883340e+00 9.834059e+01 6.003830e+01
      endloop
   endfacet
   facet normal 0.000000e+00 1.146017e-01 9.934115e-01
      outer loop
         vertex 4.883340e+00 9.834059e+01 6.003830e+01
         vertex 0.000000e+00 2.794877e+01 6.815882e+01
         vertex 4.883340e+00 2.794877e+01 6.815882e+01
      endloop
   endfacet
   facet normal 1.000000e+00 0.000000e+00 -0.000000e+00
      outer loop
         vertex 4.883340e+00 9.828127e+01 5.904006e+01
         vertex 4.883340e+00 9.834059e+01 6.003830e+01
         vertex 4.883340e+00 2.788945e+01 6.716058e+01
      endloop
   endfacet
   facet normal 1.000000e+00 -0.000000e+00 0.000000e+00
      outer loop
         vertex 4.883340e+00 2.788945e+01 6.716058e+01
         vertex 4.883340e+00 9.834059e+01 6.003830e+01
         vertex 4.883340e+00 2.794877e+01 6.815882e+01
      endloop
   endfacet
   facet normal -1.000000e+00 -0.000000e+00 0.000000e+00
      outer loop
         vertex 0.000000e+00 2.794877e+01 6.815882e+01
         vertex 0.000000e+00 2.788945e+01 6.716058e+01
         vertex 0.000000e+00 2.720767e+01 6.830814e+01
      endloop
   endfacet
   facet normal -1.000000e+00 0.000000e+00 -0.000000e+00
      outer loop
         vertex 0.000000e+00 2.720767e+01 6.830814e+01
         vertex 0.000000e+00 2.788945e+01 6.716058e+01
         vertex 0.000000e+00 2.698233e+01 6.733386e+01
      endloop
   endfacet
   facet normal -1.000000e+00 -0.000000e+00 0.000000e+00
      outer loop
         vertex 0.000000e+00 2.720767e+01 6.830814e+01
         vertex 0.000000e+00 2.698233e+01 6.733386e+01
         vertex 0.000000e+00 2.650195e+01 6.857924e+01
      endloop
   endfacet
   facet normal -1.000000e+00 0.000000e+00 -0.000000e+00
      outer loop
         vertex 0.000000e+00 2.650195e+01 6.857924e+01
         vertex 0.000000e+00 2.698233e+01 6.733386e+01
         vertex 0.000000e+00 2.611693e+01 6.765633e+01
      endloop
   endfacet
   facet normal -1.000000e+00 -0.000000e+00 0.000000e+00
      outer loop
         vertex 0.000000e+00 2.650195e+01 6.857924e+01
         vertex 0.000000e+00 2.611693e+01 6.765633e+01
         vertex 0.000000e+00 2.585148e+01 6.896448e+01
      endloop
   endfacet
   facet normal -1.000000e+00 0.000000e+00 -0.000000e+00
      outer loop
         vertex 0.000000e+00 2.585148e+01 6.896448e+01
         vertex 0.000000e+00 2.611693e+01 6.765633e+01
         vertex 0.000000e+00 2.531761e+01 6.811891e+01
      endloop
   endfacet
   facet normal -1.000000e+00 -0.000000e+00 0.000000e+00
      outer loop
         vertex 0.000000e+00 2.585148e+01 6.896448e+01
         vertex 0.000000e+00 2.531761e+01 6.811891e+01
         vertex 0.000000e+00 2.527454e+01 6.945303e+01
      endloop
   endfacet
   facet normal -1.000000e+00 0.000000e+00 -0.000000e+00
      outer loop
         vertex 0.000000e+00 2.527454e+01 6.945303e+01
         vertex 0.000000e+00 2.531761e+01 6.811891e+01
         vertex 0.000000e+00 2.460685e+01 6.870860e+01
      endloop
   endfacet
   facet normal -1.000000e+00 -0.000000e+00 0.000000e+00
      outer loop
         vertex 0.000000e+00 2.527454e+01 6.945303e+01
         vertex 0.000000e+00 2.460685e+01 6.870860e+01
         vertex 0.000000e+00 2.478739e+01 7.003114e+01
      endloop
   endfacet
   facet normal -1.000000e+00 0.000000e+00 0.000000e+00
      outer loop
         vertex 0.000000e+00 2.478739e+01 7.003114e+01
         vertex 0.000000e+00 2.460685e+01 6.870860e+01
         vertex 0.000000e+00 2.400465e+01 6.940878e+01
      endloop
   endfacet
   facet normal -1.000000e+00 -0.000000e+00 0.000000e+00
      outer loop
         vertex 0.000000e+00 2.478739e+01 7.003114e+01
         vertex 0.000000e+00 2.400465e+01 6.940878e+01
         vertex 0.000000e+00 2.440372e+01 7.068255e+01
      endloop
   endfacet
   facet normal -1.000000e+00 0.000000e+00 0.000000e+00
      outer loop
         vertex 0.000000e+00 2.440372e+01 7.068255e+01
         vertex 0.000000e+00 2.400465e+01 6.940878e+01
         vertex 0.000000e+00 2.352797e+01 7.019978e+01
      endloop
   endfacet
   facet normal -1.000000e+00 -0.000000e+00 0.000000e+00
      outer loop
         vertex 0.000000e+00 2.440372e+01 7.068255e+01
         vertex 0.000000e+00 2.352797e+01 7.019978e+01
         vertex 0.000000e+00 2.413433e+01 7.138892e+01
      endloop
   endfacet
   facet normal -1.000000e+00 0.000000e+00 0.000000e+00
      outer loop
         vertex 0.000000e+00 2.413433e+01 7.138892e+01
         vertex 0.000000e+00 2.352797e+01 7.019978e+01
         vertex 0.000000e+00 2.319021e+01 7.105932e+01
      endloop
   endfacet
   facet normal -1.000000e+00 -0.000000e+00 0.000000e+00
      outer loop
         vertex 0.000000e+00 2.413433e+01 7.138892e+01
         vertex 0.000000e+00 2.319021e+01 7.105932e+01
         vertex 0.000000e+00 2.398680e+01 7.213038e+01
      endloop
   endfacet
   facet normal -1.000000e+00 0.000000e+00 0.000000e+00
      outer loop
         vertex 0.000000e+00 2.398680e+01 7.213038e+01
         vertex 0.000000e+00 2.319021e+01 7.105932e+01
         vertex 0.000000e+00 2.300086e+01 7.196323e+01
      endloop
   endfacet
   facet normal -1.000000e+00 -0.000000e+00 0.000000e+00
      outer loop
         vertex 0.000000e+00 2.398680e+01 7.213038e+01
         vertex 0.000000e+00 2.300086e+01 7.196323e+01
         vertex 0.000000e+00 2.396527e+01 7.288607e+01
      endloop
   endfacet
   facet normal -1.000000e+00 -0.000000e+00 0.000000e+00
      outer loop
         vertex 0.000000e+00 2.396527e+01 7.288607e+01
         vertex 0.000000e+00 2.300086e+01 7.196323e+01
         vertex 0.000000e+00 2.296527e+01 7.288607e+01
      endloop
   endfacet
   facet normal 0.000000e+00 1.975198e-01 9.802989e-01
      outer loop
         vertex 4.883340e+00 2.794877e+01 6.815882e+01
         vertex 0.000000e+00 2.794877e+01 6.815882e+01
         vertex 4.883340e+00 2.720767e+01 6.830814e+01
      endloop
   endfacet
   facet normal 0.000000e+00 1.975198e-01 9.802989e-01
      outer loop
         vertex 4.883340e+00 2.720767e+01 6.830814e+01
         vertex 0.000000e+00 2.794877e+01 6.815882e+01
         vertex 0.000000e+00 2.720767e+01 6.830814e+01
      endloop
   endfacet
   facet normal 0.000000e+00 3.585955e-01 9.334930e-01
      outer loop
         vertex 4.883340e+00 2.720767e+01 6.830814e+01
         vertex 0.000000e+00 2.720767e+01 6.830814e+01
         vertex 4.883340e+00 2.650195e+01 6.857924e+01
      endloop
   endfacet
   facet normal 0.000000e+00 3.585955e-01 9.334930e-01
      outer loop
         vertex 4.883340e+00 2.650195e+01 6.857924e+01
         vertex 0.000000e+00 2.720767e+01 6.830814e+01
         vertex 0.000000e+00 2.650195e+01 6.857924e+01
      endloop
   endfacet
   facet normal 0.000000e+00 5.095792e-01 8.604237e-01
      outer loop
         vertex 4.883340e+00 2.650195e+01 6.857924e+01
         vertex 0.000000e+00 2.650195e+01 6.857924e+01
         vertex 4.883340e+00 2.585148e+01 6.896448e+01
      endloop
   endfacet
   facet normal 0.000000e+00 5.095792e-01 8.604237e-01
      outer loop
         vertex 4.883340e+00 2.585148e+01 6.896448e+01
         vertex 0.000000e+00 2.650195e+01 6.857924e+01
         vertex 0.000000e+00 2.585148e+01 6.896448e+01
      endloop
   endfacet
   facet normal 0.000000e+00 6.462322e-01 7.631408e-01
      outer loop
         vertex 4.883340e+00 2.585148e+01 6.896448e+01
         vertex 0.000000e+00 2.585148e+01 6.896448e+01
         vertex 4.883340e+00 2.527454e+01 6.945303e+01
      endloop
   endfacet
   facet normal 0.000000e+00 6.462322e-01 7.631408e-01
      outer loop
         vertex 4.883340e+00 2.527454e+01 6.945303e+01
         vertex 0.000000e+00 2.585148e+01 6.896448e+01
         vertex 0.000000e+00 2.527454e+01 6.945303e+01
      endloop
   endfacet
   facet normal 0.000000e+00 7.647010e-01 6.443853e-01
      outer loop
         vertex 4.883340e+00 2.527454e+01 6.945303e+01
         vertex 0.000000e+00 2.527454e+01 6.945303e+01
         vertex 4.883340e+00 2.478739e+01 7.003114e+01
      endloop
   endfacet
   facet normal 0.000000e+00 7.647010e-01 6.443853e-01
      outer loop
         vertex 4.883340e+00 2.478739e+01 7.003114e+01
         vertex 0.000000e+00 2.527454e+01 6.945303e+01
         vertex 0.000000e+00 2.478739e+01 7.003114e+01
      endloop
   endfacet
   facet normal 0.000000e+00 8.616494e-01 5.075039e-01
      outer loop
         vertex 4.883340e+00 2.478739e+01 7.003114e+01
         vertex 0.000000e+00 2.478739e+01 7.003114e+01
         vertex 4.883340e+00 2.440372e+01 7.068255e+01
      endloop
   endfacet
   facet normal 0.000000e+00 8.616494e-01 5.075039e-01
      outer loop
         vertex 4.883340e+00 2.440372e+01 7.068255e+01
         vertex 0.000000e+00 2.478739e+01 7.003114e+01
         vertex 0.000000e+00 2.440372e+01 7.068255e+01
      endloop
   endfacet
   facet normal 0.000000e+00 9.343564e-01 3.563400e-01
      outer loop
         vertex 4.883340e+00 2.440372e+01 7.068255e+01
         vertex 0.000000e+00 2.440372e+01 7.068255e+01
         vertex 4.883340e+00 2.413433e+01 7.138892e+01
      endloop
   endfacet
   facet normal 0.000000e+00 9.343564e-01 3.563400e-01
      outer loop
         vertex 4.883340e+00 2.413433e+01 7.138892e+01
         vertex 0.000000e+00 2.440372e+01 7.068255e+01
         vertex 0.000000e+00 2.413433e+01 7.138892e+01
      endloop
   endfacet
   facet normal 0.000000e+00 9.807742e-01 1.951462e-01
      outer loop
         vertex 4.883340e+00 2.413433e+01 7.138892e+01
         vertex 0.000000e+00 2.413433e+01 7.138892e+01
         vertex 4.883340e+00 2.398680e+01 7.213038e+01
      endloop
   endfacet
   facet normal 0.000000e+00 9.807742e-01 1.951462e-01
      outer loop
         vertex 4.883340e+00 2.398680e+01 7.213038e+01
         vertex 0.000000e+00 2.413433e+01 7.138892e+01
         vertex 0.000000e+00 2.398680e+01 7.213038e+01
      endloop
   endfacet
   facet normal 0.000000e+00 9.995947e-01 2.846707e-02
      outer loop
         vertex 4.883340e+00 2.398680e+01 7.213038e+01
         vertex 0.000000e+00 2.398680e+01 7.213038e+01
         vertex 4.883340e+00 2.396527e+01 7.288607e+01
      endloop
   endfacet
   facet normal 0.000000e+00 9.995947e-01 2.846707e-02
      outer loop
         vertex 4.883340e+00 2.396527e+01 7.288607e+01
         vertex 0.000000e+00 2.398680e+01 7.213038e+01
         vertex 0.000000e+00 2.396527e+01 7.288607e+01
      endloop
   endfacet
   facet normal 1.000000e+00 0.000000e+00 0.000000e+00
      outer loop
         vertex 4.883340e+00 2.396527e+01 7.288607e+01
         vertex 4.883340e+00 2.296527e+01 7.288607e+01
         vertex 4.883340e+00 2.398680e+01 7.213038e+01
      endloop
   endfacet
   facet normal 1.000000e+00 0.000000e+00 0.000000e+00
      outer loop
         vertex 4.883340e+00 2.398680e+01 7.213038e+01
         vertex 4.883340e+00 2.296527e+01 7.288607e+01
         vertex 4.883340e+00 2.300086e+01 7.196323e+01
      endloop
   endfacet
   facet normal 1.000000e+00 0.000000e+00 0.000000e+00
      outer loop
         vertex 4.883340e+00 2.398680e+01 7.213038e+01
         vertex 4.883340e+00 2.300086e+01 7.196323e+01
         vertex 4.883340e+00 2.413433e+01 7.138892e+01
      endloop
   endfacet
   facet normal 1.000000e+00 0.000000e+00 0.000000e+00
      outer loop
         vertex 4.883340e+00 2.413433e+01 7.138892e+01
         vertex 4.883340e+00 2.300086e+01 7.196323e+01
         vertex 4.883340e+00 2.319021e+01 7.105932e+01
      endloop
   endfacet
   facet normal 1.000000e+00 0.000000e+00 0.000000e+00
      outer loop
         vertex 4.883340e+00 2.413433e+01 7.138892e+01
         vertex 4.883340e+00 2.319021e+01 7.105932e+01
         vertex 4.883340e+00 2.440372e+01 7.068255e+01
      endloop
   endfacet
   facet normal 1.000000e+00 0.000000e+00 0.000000e+00
      outer loop
         vertex 4.883340e+00 2.440372e+01 7.068255e+01
         vertex 4.883340e+00 2.319021e+01 7.105932e+01
         vertex 4.883340e+00 2.352797e+01 7.019978e+01
      endloop
   endfacet
   facet normal 1.000000e+00 0.000000e+00 0.000000e+00
      outer loop
         vertex 4.883340e+00 2.440372e+01 7.068255e+01
         vertex 4.883340e+00 2.352797e+01 7.019978e+01
         vertex 4.883340e+00 2.478739e+01 7.003114e+01
      endloop
   endfacet
   facet normal 1.000000e+00 0.000000e+00 0.000000e+00
      outer loop
         vertex 4.883340e+00 2.478739e+01 7.003114e+01
         vertex 4.883340e+00 2.352797e+01 7.019978e+01
         vertex 4.883340e+00 2.400465e+01 6.940878e+01
      endloop
   endfacet
   facet normal 1.000000e+00 0.000000e+00 0.000000e+00
      outer loop
         vertex 4.883340e+00 2.478739e+01 7.003114e+01
         vertex 4.883340e+00 2.400465e+01 6.940878e+01
         vertex 4.883340e+00 2.527454e+01 6.945303e+01
      endloop
   endfacet
   facet normal 1.000000e+00 0.000000e+00 0.000000e+00
      outer loop
         vertex 4.883340e+00 2.527454e+01 6.945303e+01
         vertex 4.883340e+00 2.400465e+01 6.940878e+01
         vertex 4.883340e+00 2.460685e+01 6.870860e+01
      endloop
   endfacet
   facet normal 1.000000e+00 0.000000e+00 0.000000e+00
      outer loop
         vertex 4.883340e+00 2.527454e+01 6.945303e+01
         vertex 4.883340e+00 2.460685e+01 6.870860e+01
         vertex 4.883340e+00 2.585148e+01 6.896448e+01
      endloop
   endfacet
   facet normal 1.000000e+00 0.000000e+00 0.000000e+00
      outer loop
         vertex 4.883340e+00 2.585148e+01 6.896448e+01
         vertex 4.883340e+00 2.460685e+01 6.870860e+01
         vertex 4.883340e+00 2.531761e+01 6.811891e+01
      endloop
   endfacet
   facet normal 1.000000e+00 0.000000e+00 0.000000e+00
      outer loop
         vertex 4.883340e+00 2.585148e+01 6.896448e+01
         vertex 4.883340e+00 2.531761e+01 6.811891e+01
         vertex 4.883340e+00 2.650195e+01 6.857924e+01
      endloop
   endfacet
   facet normal 1.000000e+00 0.000000e+00 0.000000e+00
      outer loop
         vertex 4.883340e+00 2.650195e+01 6.857924e+01
         vertex 4.883340e+00 2.531761e+01 6.811891e+01
         vertex 4.883340e+00 2.611693e+01 6.765633e+01
      endloop
   endfacet
   facet normal 1.000000e+00 0.000000e+00 0.000000e+00
      outer loop
         vertex 4.883340e+00 2.650195e+01 6.857924e+01
         vertex 4.883340e+00 2.611693e+01 6.765633e+01
         vertex 4.883340e+00 2.720767e+01 6.830814e+01
      endloop
   endfacet
   facet normal 1.000000e+00 0.000000e+00 0.000000e+00
      outer loop
         vertex 4.883340e+00 2.720767e+01 6.830814e+01
         vertex 4.883340e+00 2.611693e+01 6.765633e+01
         vertex 4.883340e+00 2.698233e+01 6.733386e+01
      endloop
   endfacet
   facet normal 1.000000e+00 0.000000e+00 0.000000e+00
      outer loop
         vertex 4.883340e+00 2.720767e+01 6.830814e+01
         vertex 4.883340e+00 2.698233e+01 6.733386e+01
         vertex 4.883340e+00 2.794877e+01 6.815882e+01
      endloop
   endfacet
   facet normal 1.000000e+00 0.000000e+00 0.000000e+00
      outer loop
         vertex 4.883340e+00 2.794877e+01 6.815882e+01
         vertex 4.883340e+00 2.698233e+01 6.733386e+01
         vertex 4.883340e+00 2.788945e+01 6.716058e+01
      endloop
   endfacet
endsolid