<svg id="Capa_1" enable-background="new 0 0 512.008 512.008" height="512" viewBox="0 0 512.008 512.008" width="512" xmlns="http://www.w3.org/2000/svg"><g><ellipse cx="165.004" cy="317.009" rx="45" ry="15"/><circle cx="315.004" cy="317.009" r="15"/><path d="m441.584 345.228c-14.54-5.35-19.68-18.97-19.67-29.02.01-6.09 1.94-20.95 19.68-27.43 44.09-16.26 70.41-44.96 70.41-76.77 0-59.84-84.27-88.45-145.92-90h-.55c-75.43.86-152.06 14.29-215.53 38.48v112.36c4.89-.56 9.91-.84 15-.84 32.746 0 75 13.529 75 45 0 31.449-42.196 45-75 45-32.743 0-75-13.529-75-45 0-17.315 13.909-29.74 30-36.54v-107.27c-71.43 33.59-120 82.61-120 143.81 0 121.87 189.95 195 375 195 63.47 0 137-27.39 137-90 0-31.809-26.32-60.509-70.42-76.78zm-126.58 16.781c-24.81 0-45-20.19-45-45s20.19-45 45-45 45 20.19 45 45-20.19 45-45 45z"/><path d="m150.004 115.399 110.27-41.35c12.947-4.847 12.935-23.237 0-28.08l-120-45c-9.795-3.676-20.27 3.567-20.27 14.04v158.19c9.6-4.52 19.62-8.76 30-12.71z"/></g></svg>