solid MObeta_black
   facet normal 1.000000e+00 0.000000e+00 0.000000e+00
      outer loop
         vertex 1.642985e+01 1.148000e+01 5.908860e+01
         vertex 1.642985e+01 1.403000e+01 5.908860e+01
         vertex 1.642985e+01 1.148000e+01 6.958860e+01
      endloop
   endfacet
   facet normal 1.000000e+00 -0.000000e+00 0.000000e+00
      outer loop
         vertex 1.642985e+01 1.148000e+01 6.958860e+01
         vertex 1.642985e+01 1.403000e+01 5.908860e+01
         vertex 1.642985e+01 1.403000e+01 6.958860e+01
      endloop
   endfacet
   facet normal 0.000000e+00 -1.000000e+00 0.000000e+00
      outer loop
         vertex 1.642985e+01 1.403000e+01 5.908860e+01
         vertex 2.342985e+01 1.403000e+01 5.908860e+01
         vertex 1.642985e+01 1.403000e+01 6.958860e+01
      endloop
   endfacet
   facet normal 0.000000e+00 -1.000000e+00 0.000000e+00
      outer loop
         vertex 1.642985e+01 1.403000e+01 6.958860e+01
         vertex 2.342985e+01 1.403000e+01 5.908860e+01
         vertex 2.342985e+01 1.403000e+01 6.958860e+01
      endloop
   endfacet
   facet normal -1.000000e+00 0.000000e+00 0.000000e+00
      outer loop
         vertex 2.342985e+01 1.403000e+01 5.908860e+01
         vertex 2.342985e+01 2.230000e+00 5.908860e+01
         vertex 2.342985e+01 1.403000e+01 6.958860e+01
      endloop
   endfacet
   facet normal -1.000000e+00 -0.000000e+00 0.000000e+00
      outer loop
         vertex 2.342985e+01 1.403000e+01 6.958860e+01
         vertex 2.342985e+01 2.230000e+00 5.908860e+01
         vertex 2.342985e+01 2.230000e+00 6.958860e+01
      endloop
   endfacet
   facet normal 0.000000e+00 1.000000e+00 -0.000000e+00
      outer loop
         vertex 2.342985e+01 2.230000e+00 5.908860e+01
         vertex 1.642985e+01 2.230000e+00 5.908860e+01
         vertex 2.342985e+01 2.230000e+00 6.958860e+01
      endloop
   endfacet
   facet normal 0.000000e+00 1.000000e+00 0.000000e+00
      outer loop
         vertex 2.342985e+01 2.230000e+00 6.958860e+01
         vertex 1.642985e+01 2.230000e+00 5.908860e+01
         vertex 1.642985e+01 2.230000e+00 6.958860e+01
      endloop
   endfacet
   facet normal 1.000000e+00 0.000000e+00 0.000000e+00
      outer loop
         vertex 1.642985e+01 2.230000e+00 5.908860e+01
         vertex 1.642985e+01 4.780000e+00 5.908860e+01
         vertex 1.642985e+01 2.230000e+00 6.958860e+01
      endloop
   endfacet
   facet normal 1.000000e+00 -0.000000e+00 0.000000e+00
      outer loop
         vertex 1.642985e+01 2.230000e+00 6.958860e+01
         vertex 1.642985e+01 4.780000e+00 5.908860e+01
         vertex 1.642985e+01 4.780000e+00 6.958860e+01
      endloop
   endfacet
   facet normal 0.000000e+00 1.000000e+00 -0.000000e+00
      outer loop
         vertex 1.642985e+01 4.780000e+00 5.908860e+01
         vertex 1.422985e+01 4.780000e+00 5.908860e+01
         vertex 1.642985e+01 4.780000e+00 6.958860e+01
      endloop
   endfacet
   facet normal 0.000000e+00 1.000000e+00 0.000000e+00
      outer loop
         vertex 1.642985e+01 4.780000e+00 6.958860e+01
         vertex 1.422985e+01 4.780000e+00 5.908860e+01
         vertex 1.422985e+01 4.780000e+00 6.958860e+01
      endloop
   endfacet
   facet normal 0.000000e+00 -1.000000e+00 0.000000e+00
      outer loop
         vertex 1.422985e+01 1.148000e+01 5.908860e+01
         vertex 1.642985e+01 1.148000e+01 5.908860e+01
         vertex 1.422985e+01 1.148000e+01 6.958860e+01
      endloop
   endfacet
   facet normal 0.000000e+00 -1.000000e+00 0.000000e+00
      outer loop
         vertex 1.422985e+01 1.148000e+01 6.958860e+01
         vertex 1.642985e+01 1.148000e+01 5.908860e+01
         vertex 1.642985e+01 1.148000e+01 6.958860e+01
      endloop
   endfacet
   facet normal 1.000000e+00 0.000000e+00 0.000000e+00
      outer loop
         vertex 1.422985e+01 4.780000e+00 5.908860e+01
         vertex 1.422985e+01 5.980000e+00 5.908860e+01
         vertex 1.422985e+01 5.980000e+00 6.308860e+01
      endloop
   endfacet
   facet normal 1.000000e+00 0.000000e+00 0.000000e+00
      outer loop
         vertex 1.422985e+01 1.028000e+01 5.908860e+01
         vertex 1.422985e+01 1.148000e+01 5.908860e+01
         vertex 1.422985e+01 1.028000e+01 6.308860e+01
      endloop
   endfacet
   facet normal 1.000000e+00 -0.000000e+00 0.000000e+00
      outer loop
         vertex 1.422985e+01 1.028000e+01 6.308860e+01
         vertex 1.422985e+01 1.148000e+01 5.908860e+01
         vertex 1.422985e+01 1.148000e+01 6.958860e+01
      endloop
   endfacet
   facet normal 1.000000e+00 0.000000e+00 -0.000000e+00
      outer loop
         vertex 1.422985e+01 1.028000e+01 6.308860e+01
         vertex 1.422985e+01 1.148000e+01 6.958860e+01
         vertex 1.422985e+01 5.980000e+00 6.308860e+01
      endloop
   endfacet
   facet normal 1.000000e+00 0.000000e+00 -0.000000e+00
      outer loop
         vertex 1.422985e+01 5.980000e+00 6.308860e+01
         vertex 1.422985e+01 1.148000e+01 6.958860e+01
         vertex 1.422985e+01 4.780000e+00 6.958860e+01
      endloop
   endfacet
   facet normal 1.000000e+00 0.000000e+00 0.000000e+00
      outer loop
         vertex 1.422985e+01 5.980000e+00 6.308860e+01
         vertex 1.422985e+01 4.780000e+00 6.958860e+01
         vertex 1.422985e+01 4.780000e+00 5.908860e+01
      endloop
   endfacet
   facet normal 0.000000e+00 0.000000e+00 1.000000e+00
      outer loop
         vertex 1.182985e+01 0.000000e+00 7.108860e+01
         vertex 2.492985e+01 0.000000e+00 7.108860e+01
         vertex 1.182985e+01 1.626000e+01 7.108860e+01
      endloop
   endfacet
   facet normal -0.000000e+00 0.000000e+00 1.000000e+00
      outer loop
         vertex 1.182985e+01 1.626000e+01 7.108860e+01
         vertex 2.492985e+01 0.000000e+00 7.108860e+01
         vertex 2.492985e+01 1.626000e+01 7.108860e+01
      endloop
   endfacet
   facet normal 1.000000e+00 0.000000e+00 -0.000000e+00
      outer loop
         vertex 2.492985e+01 1.626000e+01 5.908860e+01
         vertex 2.492985e+01 1.626000e+01 7.108860e+01
         vertex 2.492985e+01 0.000000e+00 5.908860e+01
      endloop
   endfacet
   facet normal 1.000000e+00 0.000000e+00 0.000000e+00
      outer loop
         vertex 2.492985e+01 0.000000e+00 5.908860e+01
         vertex 2.492985e+01 1.626000e+01 7.108860e+01
         vertex 2.492985e+01 0.000000e+00 7.108860e+01
      endloop
   endfacet
   facet normal 0.000000e+00 -1.000000e+00 0.000000e+00
      outer loop
         vertex 1.182985e+01 0.000000e+00 5.908860e+01
         vertex 2.492985e+01 0.000000e+00 5.908860e+01
         vertex 1.182985e+01 0.000000e+00 7.108860e+01
      endloop
   endfacet
   facet normal 0.000000e+00 -1.000000e+00 0.000000e+00
      outer loop
         vertex 1.182985e+01 0.000000e+00 7.108860e+01
         vertex 2.492985e+01 0.000000e+00 5.908860e+01
         vertex 2.492985e+01 0.000000e+00 7.108860e+01
      endloop
   endfacet
   facet normal 0.000000e+00 -0.000000e+00 -1.000000e+00
      outer loop
         vertex 1.422985e+01 1.148000e+01 5.908860e+01
         vertex 1.422985e+01 1.028000e+01 5.908860e+01
         vertex 1.272985e+01 1.028000e+01 5.908860e+01
      endloop
   endfacet
   facet normal 0.000000e+00 -0.000000e+00 -1.000000e+00
      outer loop
         vertex 1.422985e+01 4.780000e+00 5.908860e+01
         vertex 1.642985e+01 4.780000e+00 5.908860e+01
         vertex 1.182985e+01 0.000000e+00 5.908860e+01
      endloop
   endfacet
   facet normal 0.000000e+00 0.000000e+00 -1.000000e+00
      outer loop
         vertex 1.182985e+01 0.000000e+00 5.908860e+01
         vertex 1.642985e+01 4.780000e+00 5.908860e+01
         vertex 1.642985e+01 2.230000e+00 5.908860e+01
      endloop
   endfacet
   facet normal 0.000000e+00 0.000000e+00 -1.000000e+00
      outer loop
         vertex 1.182985e+01 0.000000e+00 5.908860e+01
         vertex 1.642985e+01 2.230000e+00 5.908860e+01
         vertex 2.492985e+01 0.000000e+00 5.908860e+01
      endloop
   endfacet
   facet normal 0.000000e+00 0.000000e+00 -1.000000e+00
      outer loop
         vertex 2.492985e+01 0.000000e+00 5.908860e+01
         vertex 1.642985e+01 2.230000e+00 5.908860e+01
         vertex 2.342985e+01 2.230000e+00 5.908860e+01
      endloop
   endfacet
   facet normal 0.000000e+00 0.000000e+00 -1.000000e+00
      outer loop
         vertex 2.492985e+01 0.000000e+00 5.908860e+01
         vertex 2.342985e+01 2.230000e+00 5.908860e+01
         vertex 2.492985e+01 1.626000e+01 5.908860e+01
      endloop
   endfacet
   facet normal 0.000000e+00 0.000000e+00 -1.000000e+00
      outer loop
         vertex 2.492985e+01 1.626000e+01 5.908860e+01
         vertex 2.342985e+01 2.230000e+00 5.908860e+01
         vertex 2.342985e+01 1.403000e+01 5.908860e+01
      endloop
   endfacet
   facet normal -0.000000e+00 0.000000e+00 -1.000000e+00
      outer loop
         vertex 2.492985e+01 1.626000e+01 5.908860e+01
         vertex 2.342985e+01 1.403000e+01 5.908860e+01
         vertex 1.182985e+01 1.626000e+01 5.908860e+01
      endloop
   endfacet
   facet normal 0.000000e+00 0.000000e+00 -1.000000e+00
      outer loop
         vertex 1.182985e+01 1.626000e+01 5.908860e+01
         vertex 2.342985e+01 1.403000e+01 5.908860e+01
         vertex 1.642985e+01 1.403000e+01 5.908860e+01
      endloop
   endfacet
   facet normal 0.000000e+00 0.000000e+00 -1.000000e+00
      outer loop
         vertex 1.182985e+01 1.626000e+01 5.908860e+01
         vertex 1.642985e+01 1.403000e+01 5.908860e+01
         vertex 1.642985e+01 1.148000e+01 5.908860e+01
      endloop
   endfacet
   facet normal 0.000000e+00 0.000000e+00 -1.000000e+00
      outer loop
         vertex 1.642985e+01 1.148000e+01 5.908860e+01
         vertex 1.422985e+01 1.148000e+01 5.908860e+01
         vertex 1.182985e+01 1.626000e+01 5.908860e+01
      endloop
   endfacet
   facet normal 0.000000e+00 0.000000e+00 -1.000000e+00
      outer loop
         vertex 1.182985e+01 1.626000e+01 5.908860e+01
         vertex 1.422985e+01 1.148000e+01 5.908860e+01
         vertex 1.272985e+01 1.028000e+01 5.908860e+01
      endloop
   endfacet
   facet normal 0.000000e+00 0.000000e+00 -1.000000e+00
      outer loop
         vertex 1.182985e+01 1.626000e+01 5.908860e+01
         vertex 1.272985e+01 1.028000e+01 5.908860e+01
         vertex 1.182985e+01 0.000000e+00 5.908860e+01
      endloop
   endfacet
   facet normal 0.000000e+00 0.000000e+00 -1.000000e+00
      outer loop
         vertex 1.182985e+01 0.000000e+00 5.908860e+01
         vertex 1.272985e+01 1.028000e+01 5.908860e+01
         vertex 1.272985e+01 5.980000e+00 5.908860e+01
      endloop
   endfacet
   facet normal 0.000000e+00 0.000000e+00 -1.000000e+00
      outer loop
         vertex 1.182985e+01 0.000000e+00 5.908860e+01
         vertex 1.272985e+01 5.980000e+00 5.908860e+01
         vertex 1.422985e+01 4.780000e+00 5.908860e+01
      endloop
   endfacet
   facet normal 0.000000e+00 0.000000e+00 -1.000000e+00
      outer loop
         vertex 1.422985e+01 4.780000e+00 5.908860e+01
         vertex 1.272985e+01 5.980000e+00 5.908860e+01
         vertex 1.422985e+01 5.980000e+00 5.908860e+01
      endloop
   endfacet
   facet normal 0.000000e+00 1.000000e+00 0.000000e+00
      outer loop
         vertex 1.422985e+01 5.980000e+00 6.308860e+01
         vertex 1.422985e+01 5.980000e+00 5.908860e+01
         vertex 1.272985e+01 5.980000e+00 5.908860e+01
      endloop
   endfacet
   facet normal 9.363291e-01 0.000000e+00 -3.511235e-01
      outer loop
         vertex 1.272985e+01 5.980000e+00 5.908860e+01
         vertex 1.272985e+01 1.028000e+01 5.908860e+01
         vertex 1.422985e+01 5.980000e+00 6.308860e+01
      endloop
   endfacet
   facet normal 9.363291e-01 0.000000e+00 -3.511235e-01
      outer loop
         vertex 1.422985e+01 5.980000e+00 6.308860e+01
         vertex 1.272985e+01 1.028000e+01 5.908860e+01
         vertex 1.422985e+01 1.028000e+01 6.308860e+01
      endloop
   endfacet
   facet normal 0.000000e+00 -1.000000e+00 -0.000000e+00
      outer loop
         vertex 1.422985e+01 1.028000e+01 6.308860e+01
         vertex 1.272985e+01 1.028000e+01 5.908860e+01
         vertex 1.422985e+01 1.028000e+01 5.908860e+01
      endloop
   endfacet
   facet normal 0.000000e+00 0.000000e+00 -1.000000e+00
      outer loop
         vertex 2.342985e+01 2.230000e+00 6.958860e+01
         vertex 1.642985e+01 2.230000e+00 6.958860e+01
         vertex 2.342985e+01 1.403000e+01 6.958860e+01
      endloop
   endfacet
   facet normal 0.000000e+00 0.000000e+00 -1.000000e+00
      outer loop
         vertex 2.342985e+01 1.403000e+01 6.958860e+01
         vertex 1.642985e+01 2.230000e+00 6.958860e+01
         vertex 1.642985e+01 4.780000e+00 6.958860e+01
      endloop
   endfacet
   facet normal 0.000000e+00 0.000000e+00 -1.000000e+00
      outer loop
         vertex 1.642985e+01 1.403000e+01 6.958860e+01
         vertex 2.342985e+01 1.403000e+01 6.958860e+01
         vertex 1.642985e+01 1.148000e+01 6.958860e+01
      endloop
   endfacet
   facet normal 0.000000e+00 0.000000e+00 -1.000000e+00
      outer loop
         vertex 1.642985e+01 1.148000e+01 6.958860e+01
         vertex 2.342985e+01 1.403000e+01 6.958860e+01
         vertex 1.642985e+01 4.780000e+00 6.958860e+01
      endloop
   endfacet
   facet normal -0.000000e+00 -0.000000e+00 -1.000000e+00
      outer loop
         vertex 1.642985e+01 1.148000e+01 6.958860e+01
         vertex 1.642985e+01 4.780000e+00 6.958860e+01
         vertex 1.422985e+01 1.148000e+01 6.958860e+01
      endloop
   endfacet
   facet normal 0.000000e+00 0.000000e+00 -1.000000e+00
      outer loop
         vertex 1.422985e+01 1.148000e+01 6.958860e+01
         vertex 1.642985e+01 4.780000e+00 6.958860e+01
         vertex 1.422985e+01 4.780000e+00 6.958860e+01
      endloop
   endfacet
   facet normal 0.000000e+00 1.000000e+00 -0.000000e+00
      outer loop
         vertex 2.492985e+01 1.626000e+01 5.908860e+01
         vertex 1.182985e+01 1.626000e+01 5.908860e+01
         vertex 2.492985e+01 1.626000e+01 7.108860e+01
      endloop
   endfacet
   facet normal 0.000000e+00 1.000000e+00 0.000000e+00
      outer loop
         vertex 2.492985e+01 1.626000e+01 7.108860e+01
         vertex 1.182985e+01 1.626000e+01 5.908860e+01
         vertex 1.182985e+01 1.626000e+01 7.108860e+01
      endloop
   endfacet
   facet normal -1.000000e+00 0.000000e+00 0.000000e+00
      outer loop
         vertex 1.182985e+01 0.000000e+00 5.908860e+01
         vertex 1.182985e+01 0.000000e+00 7.108860e+01
         vertex 1.182985e+01 1.626000e+01 5.908860e+01
      endloop
   endfacet
   facet normal -1.000000e+00 0.000000e+00 0.000000e+00
      outer loop
         vertex 1.182985e+01 1.626000e+01 5.908860e+01
         vertex 1.182985e+01 0.000000e+00 7.108860e+01
         vertex 1.182985e+01 1.626000e+01 7.108860e+01
      endloop
   endfacet
endsolid